<?xml version="1.0" standalone="yes"?>
<svg xmlns="http://www.w3.org/2000/svg" width="2058" height="1017">
<path style="fill:#fafafa; stroke:none;" d="M0 0L0 1017L2058 1017L2058 0L0 0z"/>
<path style="fill:#292929; stroke:none;" d="M497 202C501.998 202.557 505.25 205.944 510.004 207.235C514.868 208.557 520.113 207.934 524.911 209.674C530.109 211.558 533.159 214.815 539 215C540.038 212.681 541.49 210.522 541.857 207.961C544.072 192.501 530.233 191.899 519 189.161C513.385 187.792 505.613 183.519 500.148 187.603C495.855 190.813 497 197.308 497 202M870 355C865.269 355 858.508 353.942 854.46 356.938C849.48 360.624 847.547 372.397 854.329 375.396C857.737 376.902 861.659 374.934 865 374.219C876.077 371.849 888.399 365.507 897.625 358.883C903.1 354.952 907.153 349.703 911.181 344.421C919.625 333.346 926.879 320.674 930.04 306.911C933.498 291.855 931.777 276.193 931.039 261C930.511 250.155 926.697 237.301 920.484 228.545C917.973 225.006 918.586 221.486 914 220C913.162 212.58 908.492 211.257 903.298 207.198C899.267 204.047 898.572 202.135 893 202C889.984 192.221 871.581 190.238 863 188.161C857.576 186.847 851.892 184.538 850.344 192.005C850.009 193.619 849.977 195.356 850.098 196.996C850.968 208.783 859.917 205.867 867.996 208.819C872.311 210.395 876.793 213.949 880.792 216.283C894.477 224.273 902.705 239.196 906.542 254.17C911.599 273.906 910.849 299.707 902.209 318.039C900.609 321.435 900.731 325.58 898.431 328.625C893.446 335.222 886.929 341.378 880.406 346.456C876.292 349.659 871.734 349.367 870 355M826 187.6C810.075 190.986 792.664 198.669 780.375 209.619C775.693 213.791 773.523 219.745 770.134 224.83C766.518 230.257 762.69 234.855 760.149 241C749.061 267.813 751.396 298.914 760.174 325.83C767.152 347.229 787.323 362.661 807.015 370.876C813.925 373.758 824.386 378.411 831.891 374.991C838.084 372.168 837.211 360.68 831.786 357.457C829.149 355.89 825.914 356.09 823 355.487C817.564 354.361 811.607 352.398 807.143 348.991C795.226 339.893 783.355 325.841 779.557 311C776.98 300.93 777 290.374 777 280C777 274.114 776.383 267.824 777.325 262C780.121 244.715 791.326 224.424 807.039 215.409C812.034 212.543 817.496 209.815 823 208.09C826.203 207.087 829.951 207.218 832.442 204.682C838.471 198.544 836.35 185.398 826 187.6M1253 187.429C1248.53 187.985 1245.17 189.907 1240.96 191.157C1236.1 192.602 1230.48 193.473 1226 195.923C1183.18 219.354 1168.65 277.782 1185.19 322C1186.88 326.516 1189.95 329.992 1192.17 334.17C1196.35 342.064 1200.17 350.054 1207.36 356.049C1214.17 361.732 1223.01 365.614 1230.91 369.383C1237.21 372.387 1248.64 377.502 1255.71 375.522C1265.1 372.895 1263.03 360.359 1255.57 356.829C1251.62 354.958 1247.02 355.752 1243 354.263C1235.53 351.498 1226.7 344.325 1221.38 338.391C1194.78 308.727 1196.12 257.697 1219.51 227.155C1225.11 219.839 1234.15 212.064 1243 209.018C1248.48 207.131 1254.83 209.16 1259.28 204.525C1265.4 198.137 1262.74 186.217 1253 187.429M1276 203L1280 203C1282.34 210.237 1291.34 207.492 1297 210.164C1305.76 214.302 1315.49 222.477 1321.24 230.258C1337.85 252.729 1340.25 287.609 1330.07 313C1328.94 315.825 1329.43 319.112 1327.99 321.791C1322.43 332.128 1314.64 339.495 1305.09 346.09C1302.15 348.122 1299.88 351.357 1296.71 353.012C1292.7 355.108 1285.52 354.806 1281 355C1279.91 359.06 1275.77 361.219 1275.15 365.108C1273.7 374.282 1280.75 375.243 1288 374.982C1294.38 374.752 1298.38 371.117 1304 368.849C1306.59 367.804 1309.41 367.724 1311.91 366.393C1316.06 364.188 1318.05 361.373 1323 361C1325.54 355.626 1330.4 352.816 1334.41 348.64C1339.11 343.75 1343.4 336.925 1346.55 330.961C1350.54 323.4 1351.96 316.184 1354.26 308.089C1355.09 305.19 1357.17 302.985 1357.79 299.985C1361.56 281.581 1358.92 262.607 1353.62 245C1351.7 238.62 1349.92 229.754 1346.3 224.184C1336.08 208.468 1317.81 195.375 1300 189.938C1294.42 188.235 1280.25 184.023 1276.46 190.228C1274.1 194.078 1275.48 198.857 1276 203M1628 207C1622.64 207.779 1619.24 211.922 1615.87 215.911C1610.16 222.665 1606.35 228.871 1602.95 237C1597.48 250.03 1594.87 264.042 1593.91 278C1593.57 283.027 1592.56 287.923 1593.13 293C1593.75 298.51 1596.44 303.599 1597.52 309C1598.25 312.641 1597.7 316.421 1598.8 320C1601.64 329.185 1609.62 336.855 1612 346C1617.6 349.008 1620.63 355.201 1625.46 359.186C1631.93 364.534 1639.39 367.27 1647 370.209C1653.49 372.716 1660.78 376.139 1667.96 375.902C1671.19 375.795 1673.93 373.796 1677 373C1677 369.861 1677.5 366.169 1676.42 363.17C1675.49 360.59 1673.76 358.687 1673 356C1666.74 354.837 1660.37 354.018 1654 354C1652.4 349.328 1647.93 349.318 1644.3 346.579C1639.7 343.11 1634.36 336.976 1630.89 332.385C1629.46 330.49 1629.14 328.215 1628.03 326.166C1618.86 309.116 1615.42 290.472 1617.71 271C1618.23 266.649 1617.64 262.256 1618.88 258.001C1623.95 240.629 1633.13 225.209 1649.07 215.383C1652.01 213.577 1654.9 211.351 1658.04 209.934C1665.66 206.492 1678.54 205.782 1676.85 194.004C1675.88 187.261 1669.39 186.523 1664 188.228C1654.23 191.318 1645.29 193.435 1636.42 199.062C1632.29 201.685 1628.87 201.57 1628 207M1735 232C1744.36 237.391 1746.23 251.225 1748.24 260.83C1754.42 290.279 1748.36 324.46 1723.79 343.961C1719.57 347.312 1714.08 351.425 1709 353.277C1703.68 355.215 1697.8 354.26 1693.15 358.109C1689.43 361.179 1688.28 369.71 1691.89 373.397C1695.13 376.706 1702.49 374.894 1706.29 373.694C1718.56 369.812 1731.62 365.152 1741.22 356.4C1756.28 342.663 1768.25 322.31 1771.74 302C1773.86 289.628 1773.37 276.421 1772.17 264C1771.54 257.476 1771.16 250.337 1769.2 244.039C1761.22 218.422 1742.19 201.848 1718.71 191.067C1713.36 188.607 1700.87 185.724 1695.11 187.319C1690.48 188.599 1689.97 195.955 1691.74 199.701C1695.25 207.107 1704.58 207.074 1710.87 209.598C1712.99 210.448 1714.29 212.42 1716.26 213.51C1722.83 217.142 1733.74 224.031 1735 232M422 344L423 351C429.286 350.523 441.871 340.493 440.304 333.17C439.103 327.557 432.927 322.231 430.529 316.911C428.847 313.178 428.981 308.959 428.192 305C427.451 301.28 425.948 297.734 425.326 294C419.398 258.422 441.086 212.726 480 207C481.326 202.079 484.94 196.641 482.397 191.303C480.463 187.246 473.605 187.916 470 188.428C460.697 189.75 453.673 194.989 445.711 199.472C443.341 200.807 440.57 201.229 438.375 202.885C406.175 227.181 398.743 268.553 404.13 306C405.764 317.365 407.488 328.03 414.381 337.441C416.928 340.918 417.373 343.32 422 344M244 192C226.24 188.993 208.074 190 190 190L153 190L132 190L115 190C112.504 190.005 109.459 189.664 107.228 191.028C101.627 194.453 103.395 204.209 108.67 206.867C112.061 208.575 116.322 208 120 208L142 208L210 208L230 208C233.033 208 236.771 208.548 239.671 207.486C245.478 205.358 244 196.831 244 192M272.228 191.028C266.304 194.65 268.597 206.066 275.019 207.606C282.376 209.369 291.455 208 299 208L349 208L366 207.999C368.454 207.982 371.309 208.225 373.231 206.397C376.931 202.878 377.851 192 371.891 190.318C364.879 188.339 355.274 190 348 190L298 190L281 190C278.237 190.001 274.7 189.516 272.228 191.028M602 234C605.878 236.348 608.775 242.156 611.276 245.999C616.53 254.073 621.734 261.745 626.484 269.996C628.709 273.862 631.378 276.455 632 281C638.058 284.14 642.965 293.371 644 300C648.449 301.401 648.695 304.687 651.054 308.296C653.864 312.596 656.504 314.541 657 320L661 320C662.292 326.186 666.648 335.951 673 338C673.663 346.054 678.324 350.099 682.735 356.424C688.42 364.576 690.428 372.976 702 373C704.955 373.006 713.011 374.382 714.843 371.397C717.944 366.345 708.284 356.713 705.951 352.911C698.14 340.187 688.673 327.919 681.437 314.911C678.499 309.63 675.11 300.849 669 299C668.713 289.331 659.975 284.219 656.128 275.985C650.063 263.005 640.708 251.634 632.938 239.576C623.999 225.705 615.785 211.425 606.204 198.086C600.821 190.59 595.686 189.982 587 190C584.08 190.006 579.171 189.342 578.373 193.148C577.12 199.118 583.074 202.544 586.212 206.299C588.257 208.745 588.936 211.916 590.622 214.576C594.721 221.041 600.401 226.344 602 234M717 341C720.432 322.513 718 301.786 718 283L718 242L718 219L718 202C717.995 199.217 718.375 195.816 716.821 193.344C714.04 188.923 702.136 188.14 699.028 192.573C697.304 195.031 698 199.174 698 202L698 225L698 286C698 295.999 696.63 307.12 698.214 316.995C698.804 320.674 701.15 322.379 703.149 325.255C706.881 330.625 710 339.823 717 341M1018 245C1017.89 234.862 1010.26 228.341 1005.89 219.83C1001.52 211.31 999.516 201.005 992.694 194.055C988.371 189.65 982.805 189.895 977.001 190.005C975.115 190.04 971.483 189.776 970.902 192.228C970.376 194.448 973.135 199.836 973.965 201.997C975.142 205.061 977.434 207.287 978.865 210.17C979.926 212.307 979.929 214.727 980.839 216.911C982.68 221.33 985.94 225.979 988.554 230C995.138 240.127 1000.15 252.068 1005.12 262.997C1009.47 272.566 1016.09 281.183 1021.15 290.184C1022.52 292.619 1022.65 295.444 1023.69 297.996C1024.94 301.066 1027.47 303.237 1028.92 306.17C1030.17 308.718 1030.56 311.488 1031.98 314C1035.21 319.731 1038.9 329.44 1043.88 333.775C1047.42 336.862 1056.52 336.969 1060.85 335.682C1068.14 333.519 1061.06 319.85 1058.46 316.286C1050.83 305.846 1045.91 293.675 1040.17 282C1037.56 276.696 1033.07 272.138 1030.69 266.871C1029.68 264.642 1029.47 262.205 1028.15 260.089C1026.78 257.9 1024.58 256.35 1023.6 253.911C1021.9 249.709 1023.01 246.582 1018 245M1122 232L1122 344L1122 363C1122.01 365.588 1121.63 369.121 1123.74 371.062C1126.23 373.351 1130.88 373.019 1134 372.995C1136.23 372.979 1138.71 373.048 1140.79 372.107C1145.4 370.015 1144.99 364.24 1145 360L1145 328L1145 192C1138.04 189.514 1124.4 187.373 1118.21 192.573C1115.09 195.194 1113.15 199.562 1111.06 203C1104.49 213.829 1100.35 225.448 1095.44 236.911C1092.58 243.592 1087.47 249.517 1084.18 256.039C1079.18 265.975 1075.31 276.715 1071.13 286.871C1070.01 289.569 1067.58 291.389 1066.37 294.054C1063.4 300.565 1066.09 306.423 1069.56 311.995C1070.77 313.933 1072.09 317.364 1074.84 317.364C1077.15 317.364 1078.3 314.744 1079.07 312.981C1081.29 307.965 1083.36 302.949 1086.02 298.13C1090.36 290.269 1093.27 282.188 1096.85 274.036C1097.89 271.687 1099.84 270.026 1101.1 267.83C1102.67 265.106 1102.71 261.869 1104.12 259.089C1105.9 255.611 1108.39 252.515 1110.21 248.999C1113.45 242.721 1114.01 233.247 1122 232M1376.11 190.742C1369.96 193.388 1370.44 205.915 1377.04 207.682C1386.47 210.202 1399.25 208 1409 208L1476 208L1497 208C1500.84 207.994 1505.29 208.313 1508.43 205.656C1515.42 199.731 1509.46 190.653 1502 190.09C1473.02 187.903 1443.07 190 1414 190L1388 190C1384.32 190 1379.57 189.255 1376.11 190.742M1539.32 191.028C1536.06 193.2 1537 198.659 1537 202L1537 234L1537 344L1537 364C1537.01 366.462 1536.57 370.216 1538.74 371.972C1540.96 373.765 1545.36 373.013 1548 372.999C1550.16 372.988 1552.69 373.209 1554.7 372.262C1558.56 370.447 1559.87 364.797 1559.98 360.999C1560.31 350.687 1560 340.317 1560 330L1560 216C1560 209.948 1562.71 194.8 1556.72 191.028C1554.07 189.358 1549.98 189.994 1547 190C1544.59 190.005 1541.44 189.612 1539.32 191.028M1818 202C1818.31 206.678 1820.53 209.078 1822.6 213.089C1827.43 222.451 1834 230.766 1840.02 239.576C1846.69 249.359 1852.03 260.17 1858.83 269.961C1863.58 276.794 1869.75 282.967 1873.84 290.205C1876.7 295.255 1878.96 300.605 1882.14 305.549C1888.3 315.119 1898.28 324.38 1900 336C1903.75 337.887 1904.44 340.474 1906.68 343.83C1910.73 349.885 1914.59 355.627 1918.3 361.741C1920.77 365.824 1924.23 368.336 1926 373C1930.99 373 1936.01 373.142 1941 372.985C1942.99 372.922 1945.58 372.975 1946.97 371.258C1948.77 369.038 1948 364.659 1948 362C1941.23 358.751 1938.96 351.203 1934.97 345.286C1931.79 340.576 1927.23 335.844 1924.69 330.872C1922.06 325.74 1918 315.038 1912 314C1911.31 309.565 1908.36 307.685 1906.56 303.83C1899.6 288.976 1889.78 274.364 1880.05 261.075C1875.47 254.82 1868.89 248.008 1868 240C1862.37 237.12 1861.07 231.126 1857.89 226.018C1855.98 222.949 1853 220.884 1851.13 217.872C1846.13 209.817 1841.39 197.165 1832.98 192.009C1829.08 189.617 1817.49 188.042 1813.61 191.179C1809.34 194.623 1814.03 201.311 1818 202M1943 339L1947 339L1947 342C1949.1 341.836 1951.34 341.881 1952.4 339.682C1953.91 336.542 1952.48 332.258 1952.17 329C1951.54 322.415 1952 315.611 1952 309L1952 224L1952 204C1951.99 200.275 1952.26 196.296 1949.57 193.344C1945.7 189.117 1933.43 188.15 1930.6 194.278C1929.45 196.779 1930 200.323 1930 203L1930 223L1930 285C1930 294.428 1928.28 305.784 1930.39 314.985C1932.48 324.053 1940.57 330.231 1943 339M1808.6 221.122C1806.21 222.705 1806.94 227.611 1807.17 230C1808.02 239.019 1808 247.93 1808 257L1808 350C1808 355.863 1805.93 367.958 1811.55 371.972C1813.73 373.531 1817.47 373.086 1820 372.96C1821.94 372.863 1823.91 372.668 1825.67 371.772C1829.54 369.798 1829.94 365.9 1830 362C1830.09 355.336 1830 348.665 1830 342C1830 319.625 1830.02 297.306 1829.04 275C1828.66 266.297 1830.49 256.538 1828.7 248C1827.19 240.786 1820.98 230.252 1816.32 224.63C1814.69 222.665 1811.47 219.226 1808.6 221.122M182 221C177.528 221 168.271 219.183 165.303 223.318C160.178 230.458 163 245.67 163 254L163 332L163 360C163.001 363.667 162.333 368.702 165.434 371.397C167.493 373.186 170.454 372.987 173 372.999C175.534 373.011 178.529 373.297 180.811 371.972C187.737 367.953 185 353.702 185 347L185 265C185 250.593 187.275 234.493 182 221M271.318 222.028C267.42 224.629 269 232.989 269 237L269 279L269 344C269 350.95 266.557 363.734 270.179 369.852C273.628 375.677 288.17 373 294 373L355 373C360.918 373 372.85 375.243 377.258 370.347C378.582 368.877 378.879 366.902 378.941 364.997C379.284 354.31 368.857 355 361 355L312 355C307.028 355 298.263 356.696 294.514 352.682C289.098 346.883 292 331.391 292 324L292 246C292 240.548 294.341 227.782 290.397 223.564C287.724 220.706 282.557 221.011 279 221.001C276.591 220.994 273.434 220.616 271.318 222.028M577.419 222.176C574.536 223.594 575.015 228.394 575.001 231C574.953 239.999 575 249 575 258L575 350C575 355.249 572.731 368.393 577.564 371.972C579.736 373.581 583.469 373.016 586 372.999C587.805 372.988 590.005 373.212 591.683 372.397C593.842 371.348 594.317 368.502 594.995 366.424C597.322 359.298 596 350.436 596 343L596 282C596 271.529 597.077 260.397 595.816 250C594.87 242.21 589.089 232.816 584.329 226.719C582.87 224.851 580.353 220.733 577.419 222.176M1451 372C1454.27 352.668 1453 332.67 1453 313L1453 272L1453 240C1453 235.764 1454.21 229.261 1452.4 225.344C1450.3 220.822 1438.4 219.28 1434.56 222.027C1432.76 223.313 1431.55 226.415 1430.8 228.424C1427.52 237.181 1430 250.692 1430 260L1430 330L1430 354C1430 358.258 1429.45 362.955 1431.05 366.995C1434.33 375.306 1443.78 373.34 1451 372M988 373C989.753 359.133 989 344.974 989 331L989 265C989 254.821 985.784 248.809 981.069 240C979.164 236.44 979.115 233.352 975 232C974.634 229.274 971.548 221.234 968.024 226.337C965.875 229.449 967.311 234.581 967.714 238C968.566 245.214 968 252.743 968 260L968 338L968.001 359C968.017 362.36 967.8 366.662 969.514 369.697C972.418 374.837 983.079 373 988 373M309.228 271.028C304.937 273.652 304.083 285.185 309.148 287.397C312.728 288.96 318.171 288 322 288L352 288C355.595 288 362.385 289.279 365.411 286.972C370.201 283.321 368.635 272.31 362.956 270.573C358.678 269.263 353.423 270 349 270L323 270C319.009 270 312.775 268.859 309.228 271.028M442 366C448.588 367.121 453.748 370.934 460 372.872C471.728 376.507 485.79 377.637 498 376.957C506.126 376.504 516.282 374.251 524 371.598C529.139 369.832 533.623 367.154 539 366C539.497 362.793 540.15 361.556 543 360L543 350C534.473 348.423 531.624 352.367 523.999 354.502C518.697 355.986 512.477 356.066 507 356.714C499.74 357.574 491.252 357.655 484 356.711C477.832 355.907 472.291 354.017 466 354L466 351C456.964 348.905 451.375 345.583 443.926 353.04C442.509 354.459 441.068 355.882 440.643 357.929C440.119 360.449 441.679 363.473 442 366M1312.33 427.086C1308.5 429.084 1304.45 438.167 1303.49 442.27C1302.73 445.513 1305.1 448.744 1308.66 447.353C1312.45 445.875 1317.47 435.894 1317.73 432.005C1317.93 429.005 1315.78 425.292 1312.33 427.086M1668 478C1666.21 483.692 1659.67 484.145 1655.01 487.069C1651.79 489.094 1649.29 492.23 1645.96 494.026C1644 495.081 1641.3 495.83 1639.09 495.23C1632.28 493.38 1629.06 483.377 1621.1 484.192C1617.14 484.599 1614.8 489.262 1612.41 491.957C1606.97 498.076 1599.53 502.933 1594.7 509.595C1586.68 520.648 1608.91 525.044 1603.91 535.83C1601.46 541.117 1597.07 545.714 1594.38 551C1589.62 560.33 1586.1 570.327 1582.22 580C1579.76 586.149 1581.84 594.163 1578.68 599.87C1574.53 607.384 1565.73 602.926 1559.63 606.148C1551.33 610.538 1553 622.303 1553 630C1553 633.22 1552.68 636.648 1553.26 639.83C1553.76 642.617 1554.81 647.231 1556.74 649.347C1561.85 654.949 1571.11 649.591 1576.94 653.603C1582.12 657.167 1583.25 667.139 1584 673C1576.81 670.182 1566.09 664.518 1558.3 669.027C1545.65 676.349 1543.97 696.368 1558 702.988C1568.26 707.826 1577.56 700.7 1582.26 692.286C1583.68 689.746 1586.81 683.901 1590.26 687.427C1592.33 689.538 1592.38 693.327 1593.67 695.911C1596.71 701.997 1606.46 710.906 1605.59 717.911C1604.99 722.71 1599.19 725.089 1596.72 728.819C1591.43 736.835 1599.8 744.442 1605.13 749.579C1610.19 754.457 1618.75 765.706 1627 763.421C1633.71 761.563 1636.92 750.381 1644.67 753.844C1647.25 754.995 1648.87 757.565 1651.32 758.933C1658.88 763.144 1666.88 767.8 1675 770.931C1680.3 772.973 1686.51 775.179 1692.04 776.371C1696.05 777.234 1700.32 777.12 1703.96 779.279C1712.15 784.148 1705.84 793.022 1710.89 799.096C1716.94 806.373 1734.47 803.04 1743 802.999C1746.42 802.983 1750.49 803.126 1753.62 801.501C1761.88 797.213 1754.35 785.812 1761.15 780.738C1766.69 776.6 1777.35 775.402 1784 773.536C1788.33 772.323 1792.52 771.569 1794 767C1802.04 766.489 1809.96 762.618 1816.71 758.405C1819.84 756.454 1823.09 752.168 1826.93 751.792C1829.59 751.53 1831.95 753.94 1833.95 755.369C1839.4 759.259 1845.25 763.932 1851.91 759.712C1859.17 755.111 1868.08 745.124 1872.63 737.83C1875.29 733.575 1875.51 728.956 1870 728C1869.25 723.111 1863.26 718.862 1863.84 714.089C1864.13 711.708 1866.33 709.923 1867.43 707.911C1869.57 704.02 1871.48 699.865 1873.55 695.911C1877.54 688.283 1880.67 680.153 1883.63 672C1885.58 666.633 1885.07 658.548 1889.53 654.564C1897.66 647.319 1909.4 656.622 1915.84 644.714C1917.26 642.071 1917 638.904 1917 636C1917.01 628.863 1919.99 613.088 1914.02 608.109C1908.23 603.276 1899.02 605 1892 605C1891.18 601.801 1889.33 599.151 1888.39 596C1886.74 590.476 1886.54 584.523 1884.66 579.039C1881.69 570.381 1877.22 561.651 1873.76 553.089C1871.56 547.668 1863.65 540.794 1863.75 535C1863.88 526.97 1875.37 524.974 1876.51 517.96C1877.79 510.109 1869.84 503.055 1863 501C1862.34 496.886 1860.54 495.992 1857.32 493.64C1853.95 491.178 1850.7 486.271 1846 486.727C1837.34 487.566 1832.99 500.947 1824 495.965C1811.14 488.844 1798.76 480.832 1785 475.611C1777.92 472.925 1767.64 472.978 1761.34 468.976C1752.92 463.632 1761.76 449.447 1750 447.264C1741.51 445.689 1731.62 446.956 1723 447.001C1719.43 447.019 1715.38 446.925 1712.65 449.653C1708.37 453.938 1711.52 459.897 1709.4 464.787C1708.28 467.343 1705.44 468.577 1703 469.532C1696.08 472.244 1688.72 471.628 1682 475C1679.63 476.191 1676.03 478.459 1673.34 476.879C1670.69 475.331 1672.23 472.293 1672.49 470C1672.97 465.73 1670.32 462.288 1665.96 462.078C1658.19 461.704 1653.39 470.481 1659.58 476.11C1661.86 478.179 1665.14 477.968 1668 478M1800.04 461.653C1789.4 465.196 1799.23 480.071 1807.79 476.396C1817.28 472.317 1809.42 458.534 1800.04 461.653M710 576C710.593 583.773 720.831 589.106 728 590C729.446 594.114 733.039 594.089 737 594.753C743.441 595.832 749.426 598.021 756 597.999C761.394 597.982 764.958 595.845 770 594.557C773.579 593.643 777.442 594.548 780.911 593.157C787.056 590.693 796.735 586.397 801.281 581.455C806.927 575.317 811.48 567.28 815.529 560.043C816.842 557.696 819.338 556.06 820.4 553.625C822.964 547.747 822 537.386 822 531C822 524.849 822.412 517.887 820.277 512C809.576 482.488 776.755 460.537 745.001 465.301C739.896 466.067 736.686 469.584 731.996 471.237C719.101 475.781 706.239 484.717 699.459 497.259C689.386 515.892 685.805 539.526 696.175 559.169C699.088 564.687 703.381 574.905 710 576M225 467C196.858 464.779 168.258 466 140 466C133.557 466 126.383 465.113 120.019 466.148C117.189 466.609 114.52 468.724 116.086 471.857C118.134 475.952 124.268 475 128 475L152 475C155.287 475 159.875 474.265 162.566 476.603C167.573 480.954 165 494.972 165 501L165 569C165 575.872 164.311 583.154 165.109 589.981C165.408 592.54 166.811 595.543 169.896 593.914C172.822 592.368 172.941 588.89 172.995 586C173.127 579.005 173 571.996 173 565L173 503C173 496.387 170.657 484.147 174.434 478.468C177.627 473.667 182.069 474.581 187 474.911C194.94 475.441 203.043 475 211 475C218.007 475 224.366 475.538 225 467M258 596C260.499 596.648 262.671 598.127 265.17 598.701C272.774 600.45 282.207 599 290 599L341 599C352.17 599 365.118 602.413 370 590C361.376 587.947 351.826 589 343 589L298 589C286.76 589 275.901 589.562 265 587L265 553C265 547.605 264.263 541.798 269.444 538.434C273.148 536.027 278.791 537 283 537L314 537C322.492 537 329.876 538.522 330 528L295 528C287.571 528 274.244 530.538 268.148 525.486C264.601 522.547 265.002 518.167 265 514L265 490C265.002 484.926 264.962 480.452 269.444 477.148C274.685 473.285 283.84 475 290 475L339 475C346.74 475 355.35 476.064 362.995 474.852C365.658 474.43 369.122 472.497 368.248 469.224C367.538 466.56 364.272 466.187 361.999 466.044C356.043 465.669 349.967 466 344 466L281 466C275.435 466 262.56 463.621 258.603 468.318C256.451 470.873 257.001 474.904 257 478L257 501L257 558C257 570.672 256.411 583.425 258 596M422 581C425.786 582.644 428.515 585.729 432.17 587.584C434.281 588.656 436.737 588.821 438.791 589.994C440.791 591.135 442.064 593.173 444.209 594.107C447.881 595.707 452.188 594.632 456 595.85C459.864 597.084 462.824 598.862 467 598.985C477.017 599.278 486.208 594.056 496 593L496 589C503.079 588.848 505.707 585.857 510.901 581.576C514.604 578.524 512.412 575.487 508.011 575.248C504.493 575.057 503.15 577.412 500.625 579.292C497.383 581.706 491.623 585.097 487.83 586.437C485.081 587.408 481.867 586.947 479 587.286C471.22 588.204 462.811 588.689 455 587.714C450.102 587.102 447.166 585.072 442.91 582.911C420.672 571.612 403.808 544.82 410.765 519.001C411.822 515.077 414.399 512.425 416.205 508.914C420.284 500.986 425.298 492.444 432.414 486.803C434.873 484.854 438.074 484.602 440.715 483.031C443.277 481.506 445.135 479.333 448.004 478.264C454.263 475.931 461.43 475.997 468 476C476.018 476.003 485.697 476.502 492.961 480.284C497.16 482.47 500.957 486.707 505.259 488.411C507.77 489.406 512.99 489.085 511.968 485.231C509.851 477.255 496.881 471.631 490 468.94C463.325 458.508 431.64 470.493 414.154 492.129C402.239 506.873 400.245 527.912 403.625 546C404.241 549.296 403.679 552.752 405.005 555.911C406.769 560.108 410.444 565.819 413.394 569.29C416.606 573.069 420.588 576.136 422 581M1016 490C1006.13 491.56 1000.26 507.293 998.619 516C997.713 520.792 998.435 525.212 998.545 530C998.707 537.12 997.647 543.901 999.411 551C1002.73 564.352 1014.35 577.777 1024.71 586.336C1026.85 588.102 1029.44 588.46 1031.87 589.63C1034.46 590.877 1036.32 593.054 1039.05 594.096C1043.96 595.969 1048.88 595.531 1053.96 596.129C1058.17 596.624 1061.61 598.216 1066 597.956C1069.38 597.755 1071.87 595.923 1075.09 595.274C1080.94 594.093 1086.14 594.678 1091.83 592.13C1099.76 588.584 1104.89 583.346 1111.07 577.451C1113.9 574.749 1117.62 571.891 1119.69 568.545C1120.92 566.567 1121.06 564.138 1122.15 562.089C1123.32 559.883 1125.3 558.237 1126.28 555.911C1127.99 551.841 1127.52 547.271 1128.14 543.015C1128.61 539.805 1130.85 537.264 1130.85 533.961C1130.84 530.456 1129.05 527.368 1128.38 524C1127.31 518.622 1128.15 513.349 1126.24 508.039C1121.56 495.031 1110.52 485.66 1100.62 477.035C1089.95 467.732 1074.51 466 1061 466C1056.55 466 1051.32 465.273 1047 466.51C1043.48 467.518 1040.41 469.934 1037 471.305C1029.32 474.399 1016.5 480.923 1016 490M1163 544C1163 558.606 1170.69 571.088 1181.59 580.715C1184 582.843 1186.53 585.375 1189.29 587.031C1193.16 589.36 1196.51 589.224 1198 594C1208.8 594.223 1219.3 599.328 1230 597.79C1233.1 597.344 1235.92 595.864 1239 595.329C1242.65 594.695 1246.4 595.358 1249.95 594.08C1252.91 593.012 1254.44 590.408 1257.13 589.009C1260.04 587.494 1263.82 588 1267 588C1267.2 590.9 1270.22 598.121 1273.98 593.392C1276.43 590.308 1275 582.722 1275 579L1275 547C1275 542.734 1276.16 536.383 1274.14 532.483C1272.15 528.631 1266.83 528.209 1263 528.039C1253.04 527.599 1242.97 528 1233 528C1229.9 528 1221.01 526.483 1220.54 531.108C1219.95 536.956 1227.17 536.992 1231 537L1254 537.001C1257.57 537.018 1261.79 536.843 1264.57 539.514C1269.4 544.168 1267 556.844 1267 563C1267 565.465 1267.39 568.466 1266.4 570.79C1264.72 574.708 1260.78 575.397 1260 580L1249 583L1249 587C1236.7 587.254 1222.12 590.598 1210 587.442C1203.2 585.671 1195.51 580.733 1189.98 576.455C1172.18 562.705 1164.3 537.868 1170.72 516C1171.69 512.684 1173.97 510.137 1175.31 507C1178.98 498.382 1185.59 489.19 1194.04 484.437C1209.55 475.716 1227.72 471.697 1245 477.835C1253 480.678 1260.55 488.363 1269 489C1268.49 477.26 1258.86 473.524 1249.09 469.987C1243.1 467.821 1239.63 466.003 1233 466C1226.52 465.997 1219.37 465.167 1213 466.479C1192.86 470.629 1173.78 486.996 1165.22 505.285C1161.33 513.601 1159 524.882 1159 534C1159 538.255 1158.47 542.409 1163 544M546 467C542.945 491.176 545 516.627 545 541C545 558.524 542.798 577.751 546 595C557.523 592.762 553 578.145 553 569C553 541.649 553.075 514.211 553 487C560.649 489.742 567.327 495.105 570 503L575 503C575.384 508.039 578.182 509.747 581.154 513.478C584.962 518.26 587.985 523.289 592.23 527.727C602.605 538.574 612.576 549.883 622.52 561.245C627.457 566.885 631.161 573.697 636.309 579.142C639.658 582.685 643.317 585.861 646.665 589.451C648.164 591.058 649.31 593.457 651.39 594.393C653.982 595.559 657.362 594.49 660 594C659.769 566.116 660 538.003 660 510L660 484C660 480.554 660.903 475.507 659.397 472.313C658.31 470.006 655.395 469.203 654 467C646.939 469.343 650 485.726 650 492L650 556C650 563.172 652.599 574.505 644 577C643.107 570.599 638.381 564.752 632 563C631.121 557.344 626.574 554.207 623.015 549.996C617.168 543.076 611.531 536.082 605.505 529.271C602.121 525.445 600.331 520.849 595 520C593.046 507.704 577.725 502.866 575 491C570.306 489.553 569 484.825 564 484C563.301 474.787 554.244 469.047 546 467M853 467C850.351 487.957 852 509.874 852 531C852 552.126 850.351 574.043 853 595L858 595C860.216 601.677 873.16 599 879 599L943 599C949.018 599 965.488 602.241 965.547 593.054C965.581 587.8 958.519 589 955 589L918 589L877 589C871.818 589 865.5 590.163 862.434 584.941C858.666 578.526 861 566.252 861 559L861 496C861 490.374 860.626 484.595 861.286 479C861.617 476.19 862.881 472.103 860.972 469.589C859.303 467.391 855.483 467.323 853 467M1348 594C1351.12 594 1356.73 595.038 1359.01 592.397C1364.8 585.698 1362.64 570.512 1374 570.019C1389.27 569.357 1404.71 570 1420 570C1426.15 570 1435.18 568.342 1440.96 570.603C1444.99 572.181 1450.01 580.157 1451.53 584.184C1452.52 586.816 1452.29 590.132 1454.56 592.142C1456.8 594.115 1460.22 593.94 1463 594C1462.61 585.815 1455.78 578.369 1452.75 570.981C1451.6 568.173 1451.96 564.933 1451.1 562.019C1450.32 559.338 1448.61 557.367 1447.33 554.94C1445.29 551.052 1445.65 545.359 1441 544C1440.54 533.561 1433.7 523.024 1429.11 513.83C1424.33 504.24 1421.91 493.859 1416.43 484.714C1414.23 481.052 1413.32 466.179 1406.15 467.832C1403.19 468.513 1401.95 472.46 1400.5 474.714C1397.64 479.15 1396.48 483.092 1394.45 487.83C1392.59 492.193 1390.19 495.171 1389.04 499.961C1387.34 507.096 1381.53 513.135 1378.84 519.999C1372.59 535.918 1367.46 552.623 1359.61 568C1355.59 575.891 1348.61 584.906 1348 594M1307 470C1305.41 482.575 1306 495.329 1306 508L1306 566L1306 587C1306 589.283 1305.39 593.366 1307.6 594.883C1309.63 596.27 1313.69 595.098 1316 595L1316 498C1316 491.002 1316.09 483.997 1316 477C1315.96 474.503 1316.17 470.647 1313.66 469.157C1311.84 468.081 1308.86 469.591 1307 470z"/>
<path style="fill:#fafafa; stroke:none;" d="M703 550C703.468 555.372 703.866 562.976 710 564C711.989 571.98 720.869 578.618 728.011 581.911C731.116 583.343 733.824 585.772 737.089 586.787C746.086 589.583 757.798 588.372 767 587.286C769.899 586.943 773.131 587.402 775.911 586.415C800.924 577.535 818.134 549.504 813.674 523C812.247 514.52 806.993 506.179 802.626 498.975C795.933 487.934 786.34 481.167 774 477.706C762.28 474.419 748.848 473.573 737 477.329C721.066 482.382 710.551 494.57 703.356 508.871C702.217 511.134 699.983 512.622 699.314 515.129C698.402 518.549 699.113 522.482 698.715 526C698.057 531.813 696.596 547.748 703 550M1059 475.424C1052.45 476.274 1046.24 476.374 1040.01 478.992C1026.26 484.778 1016.2 496.8 1010.03 509.985C1008.71 512.818 1006.09 515.025 1005.31 518.089C1004.38 521.767 1004.98 526.229 1005 530C1005.11 552.122 1016.43 569.796 1034.73 581.375C1037.34 583.029 1039.39 585.644 1042.17 587.015C1045.62 588.716 1050.27 588 1054 588C1063.04 588 1072.03 588.315 1080.99 586.931C1084.9 586.327 1087.56 583.876 1091.01 582.17C1114.54 570.56 1127.02 540.395 1119.57 515.129C1118.73 512.281 1116.03 510.634 1114.85 507.946C1113.85 505.67 1113.72 503.211 1112.49 501C1108.01 492.956 1100.73 487.59 1093.09 483.12C1090.64 481.688 1088.72 479.555 1085.96 478.653C1081.63 477.234 1076.5 477.541 1072 476.806C1067.4 476.054 1063.74 474.81 1059 475.424M1373 552C1373.07 554.977 1372.94 558.996 1375.65 560.972C1378.6 563.118 1384.56 562 1388 562L1419 562C1423.09 562 1434.17 563.939 1436.97 560.397C1440.34 556.149 1436.37 550.567 1434.4 546.911C1430.53 539.744 1427.02 532.181 1427 524L1423 524C1422.4 518.002 1420.15 512.029 1417.34 506.714C1414.78 501.889 1413.52 496.745 1410.76 492.005C1409.77 490.317 1408.78 487.394 1406.7 486.752C1404.9 486.194 1403.59 487.753 1402.81 489.148C1400.62 493.095 1398.31 497.726 1396.84 502.004C1392.31 515.168 1385.8 527.029 1379.3 539.17C1376.67 544.098 1378.62 548.887 1373 552z"/>
<path style="fill:#292929; stroke:none;" d="M1540.39 492.028C1532.73 496.987 1540.62 510.488 1548.67 505.824C1558.62 500.067 1548.76 486.612 1540.39 492.028M1919.29 492.989C1910.39 497.639 1917.4 509.904 1925.57 506.138C1935.41 501.604 1928.31 488.277 1919.29 492.989M1951.09 507.573C1946.85 508.859 1943.43 513.808 1940.42 516.87C1932.8 524.64 1923.78 537.985 1913 541.437C1906.58 543.492 1898.7 541.605 1892 542.579C1889.37 542.962 1885.83 542.964 1884.18 545.433C1881.58 549.342 1885.34 553.572 1889.09 554.581C1895.97 556.434 1909.86 556.478 1916.71 554.526C1928.96 551.037 1939.14 536.598 1947.61 527.804C1950.97 524.325 1955.97 521.148 1958.69 517.214C1962.71 511.382 1957.32 505.686 1951.09 507.573M1513.32 509.032C1510.69 510.776 1511.29 514.412 1512.57 516.816C1515.02 521.407 1520.91 526.258 1524.73 529.816C1531.18 535.823 1537.01 542.544 1543.72 548.286C1546.31 550.502 1548.69 553.266 1552 554.411C1556.98 556.134 1563.78 555 1569 555C1573.37 555 1579.85 556.165 1583.52 553.258C1586.47 550.914 1587.69 546.606 1583.87 544.549C1575.36 539.978 1565.71 543.99 1557 540.941C1550.75 538.752 1547.95 533.736 1543.63 529.194C1538.54 523.843 1532.77 518.778 1527.11 514.015C1523.67 511.112 1518.33 505.716 1513.32 509.032M1562.91 511.018C1560.36 511.665 1556.93 513.596 1555.9 516.143C1553.51 522.056 1559.27 527.194 1564.91 525.566C1573.92 522.962 1572.27 508.65 1562.91 511.018M1910 525C1910.5 522.757 1911.79 520.317 1911.74 518.001C1911.47 505.591 1887.75 512.246 1898.06 523.682C1899.43 525.205 1901.02 525.812 1903.04 525.852C1905.34 525.897 1907.72 525.288 1910 525z"/>
<path style="fill:#fafafa; stroke:none;" d="M1714 540C1710.49 540.566 1708.97 542.722 1705.87 544.15C1701.21 546.296 1695.03 548.106 1690 549L1690 546C1686.54 544.936 1685.33 543.331 1684 540C1678.61 538.597 1676.1 531.975 1670 532.464C1666.73 532.726 1664.12 535.295 1661.88 537.464C1656.44 542.75 1650.21 548.43 1645.54 554.389C1643.59 556.882 1640.81 559.546 1641.57 563C1643.55 572.034 1656.19 575.189 1657.18 584.17C1657.52 587.222 1655.22 591.273 1653.99 593.999C1650.59 601.561 1644.92 603.984 1637 604C1632.75 604.008 1625.11 602.441 1622.86 607.148C1621.35 610.292 1622 614.617 1622 618C1622 624.999 1621.95 632 1622 638.999C1622.03 642.782 1622.2 646.238 1626.06 648.062C1634.9 652.242 1647.86 644.263 1653.16 656.043C1655.27 660.748 1656.36 669.163 1652.99 673.447C1649.38 678.025 1640.13 682.191 1640.41 688.827C1640.58 692.919 1644.85 695.571 1647.37 698.223C1653.49 704.654 1663.22 711.021 1667 719C1672.86 718.611 1677.38 715.882 1681.58 711.866C1684.37 709.189 1687 705.346 1691 704.477C1697.24 703.124 1703.35 709.844 1710 710C1710.88 713.097 1712.67 715.711 1712.94 719.004C1713.34 723.937 1711.61 730.571 1714.74 734.852C1717.22 738.236 1721.24 737.992 1725 738L1747 738C1750.07 738 1754.88 738.827 1757.26 736.397C1764.18 729.322 1752.53 713.616 1765 710C1766.09 708.008 1767.04 706.742 1769.06 705.529C1778.56 699.825 1783.62 706.689 1789.83 713.026C1794.2 717.485 1799.1 720.305 1804.74 716.197C1812.61 710.464 1818.28 702.466 1825.45 696.04C1827.84 693.9 1832.68 691.257 1831.36 687.335C1828.26 678.133 1808.76 673.135 1814.58 661C1816.58 656.836 1820.09 649.958 1825.04 649.148C1830.83 648.2 1846.48 652.365 1848.68 644.811C1851.18 636.231 1849.05 623.935 1849 615C1848.98 611.474 1849.18 607.54 1845.77 605.457C1839.12 601.387 1830.02 606.16 1823.05 603.397C1818.35 601.532 1815.12 593.894 1813.02 589.576C1808.84 580.955 1819.18 574.58 1824.37 569.112C1826.61 566.756 1829.3 563.816 1828.4 560.286C1827.36 556.226 1823.5 553.32 1820.59 550.649C1815.7 546.156 1810.93 541.463 1806.25 536.754C1803.85 534.328 1800.71 531.649 1797 532.698C1789.22 534.898 1786.43 546.129 1777.91 547.707C1774.74 548.293 1771.92 546.928 1769 545.946C1767.1 545.307 1764.87 545.063 1763.15 543.988C1757.35 540.356 1759.03 528.803 1759 523C1758.98 520.047 1759.34 516.09 1756.57 514.179C1754 512.409 1749.94 513.001 1747 513L1725 513C1721.85 513.001 1717.07 512.263 1715.03 515.318C1713.61 517.44 1714.01 520.585 1714 523L1714 540z"/>
<path style="fill:#292929; stroke:none;" d="M1893.04 565.742C1885.56 568.79 1888.34 577.25 1895.17 578.725C1909.54 581.829 1925.87 575.518 1940 580.094C1945.45 581.859 1952.71 591.931 1958.68 587.971C1961.36 586.197 1960.88 582.57 1959.54 580.104C1957.09 575.57 1949.57 568.296 1945 566.027C1941.02 564.052 1935.32 565 1931 565L1906 565C1901.98 565 1896.84 564.194 1893.04 565.742M1526 566.728C1520.5 568.31 1513.11 572.07 1511.43 578.039C1510.61 580.958 1510.26 586.781 1514.11 587.627C1519.74 588.864 1526.55 580.748 1532 579.418C1541.42 577.121 1553.31 579.016 1563 579C1567.57 578.993 1573.52 579.008 1577.57 576.49C1583.43 572.844 1576.11 566.738 1572 566.144C1563.02 564.847 1553.07 566 1544 566C1538.22 566 1531.6 565.119 1526 566.728M1772 578C1766.17 576.865 1762.22 572.743 1756.91 570.542C1742.8 564.694 1725.23 564.159 1711 570.213C1703.96 573.206 1697.71 578.84 1692.56 584.385C1689.59 587.585 1686.08 590.272 1683.78 594.04C1667.38 620.951 1675.12 658.438 1701 676.319C1731.04 697.068 1772.26 683.405 1788 652C1790.67 646.677 1792.98 641.981 1793.71 636C1795.43 622.069 1793.79 607.323 1786.14 595.286C1782.14 589.003 1775.46 584.49 1772 578z"/>
<path style="fill:#fafafa; stroke:none;" d="M1728 602.703C1712.96 607.783 1706.29 630.27 1716.7 642.701C1723.3 650.585 1733.95 651.292 1743 648.161C1755.24 643.928 1761.82 627.931 1756.06 616.184C1753.36 610.694 1747.5 606.612 1742.09 604.273C1737.58 602.325 1732.89 601.052 1728 602.703z"/>
<path style="fill:#292929; stroke:none;" d="M1948.04 624.757C1937.88 628.62 1945.29 641.733 1954.94 637.964C1963.89 634.469 1956.41 621.577 1948.04 624.757M1525 626C1522.72 625.712 1520.31 625.096 1518 625.198C1503.39 625.843 1516.03 648.579 1524.57 636.852C1525.36 635.767 1525.68 634.308 1525.82 633.001C1526.05 630.669 1525.42 628.275 1525 626M135.094 638.858C127.15 642.382 130.815 650.938 138.09 651.87C156.755 654.262 177.172 652 196 652L406 652L1147 652L1393 652L1453 652C1458.49 652 1470.3 654.218 1474.26 649.566C1481.9 640.587 1469.04 638.002 1463 638L1401 638L1154 638L427 638L220 638L161 638C153.573 638 141.958 635.814 135.094 638.858M1896.17 668.984C1891.6 671.197 1886.42 674.439 1884.73 679.425C1879.55 694.677 1894.84 709.66 1909.83 702.467C1927.41 694.031 1922.73 667.969 1903 668.002C1900.67 668.005 1898.31 667.947 1896.17 668.984z"/>
<path style="fill:#fafafa; stroke:none;" d="M1558 691C1560.22 691.866 1562.6 693.358 1565 693.572C1566.72 693.724 1568.44 693.202 1569.94 692.391C1583.71 684.955 1562.1 671.57 1558.32 684.212C1557.69 686.304 1558 688.844 1558 691M1910 690L1910 680C1906.03 679.687 1901.87 678.422 1898.06 680.149C1892.02 682.885 1893.14 690.834 1899.02 692.872C1903.21 694.324 1906.32 691.598 1910 690z"/>
<path style="fill:#292929; stroke:none;" d="M318 786C323.822 788.59 324.02 796.002 330 797C330.508 803.601 336.404 806.792 341.49 810.205C346.554 813.604 352.358 818.074 358.039 820.263C364.61 822.795 373.095 822 380 822C388.026 822 396.303 821.896 404 819.251C429.315 810.549 451.953 780.455 448.871 753C447.349 739.446 444.49 726.172 435.794 715.104C423.402 699.333 403.695 689.26 384 687.911C380.39 687.663 376.726 686.585 373.09 687.148C369.661 687.679 367.298 690.477 363.996 691.429C361.035 692.283 357.923 692.04 355 693.144C346.47 696.368 337.617 702.632 331.414 709.321C317.597 724.218 310.879 744.911 313.109 764.996C313.466 768.213 315.443 770.237 316.441 773.17C317.73 776.962 317.684 781.997 318 786M882 691C873.955 692.313 876 701.688 876 708C876 720.333 875.941 732.667 876.001 745C876.022 749.333 877.102 753.693 876.7 758C875.277 773.216 876 788.708 876 804C876 808.264 874.374 816.853 877.028 820.436C878.535 822.471 881.689 822.735 884 822.91C890.276 823.384 896.708 823 903 823L965 823L982 823C984.416 822.995 987.379 823.347 989.516 821.972C994.283 818.906 991.624 814.636 986.995 814.109C977.888 813.071 968.166 814 959 814L908 814C902.849 814 893.388 815.831 889.514 811.682C887.098 809.096 887.045 805.316 887.004 802C886.922 795.335 887 788.665 887 782C887 776.669 885.384 768.15 887.603 763.228C889.55 758.911 896.181 760 900 760L938 760C941.329 760 953.278 761.545 953.368 756.076C953.432 752.207 947.794 751.128 944.985 751.019C935.022 750.63 924.971 751 915 751L898 751C895.56 750.995 892.551 751.353 890.39 749.972C887.524 748.139 886.424 744.194 886.529 741C886.827 731.999 887.015 723.025 887 714C886.994 710.439 885.586 705.425 886.693 702.059C887.632 699.203 890.266 698.298 893.001 698.059C899.243 697.511 905.734 698 912 698L967 698C973.178 698 984.101 700.103 989.682 697.258C993.016 695.558 992 690.079 992 687L909 687L891 687.001C886.943 687.022 883.479 686.795 882 691M1177 687L1176 698L1210 698C1214.1 698 1220.27 696.931 1223.68 699.742C1227.49 702.883 1226 710.632 1226 715L1226 758L1226 805C1226 809.86 1224.04 819.588 1231.04 819.922C1233.08 820.019 1235.4 819.701 1236.4 817.682C1237.59 815.255 1237 811.62 1237 809L1237 792L1237 727L1237 710C1237 707.197 1236.53 703.671 1238.03 701.148C1240.66 696.707 1247.66 698 1252 698C1263.59 698 1276.69 699.692 1288 697C1287.68 694.524 1287.68 690.74 1285.99 688.742C1284.35 686.811 1281.28 687.036 1279 687.004C1273 686.92 1267 687 1261 687L1177 687M1420 694C1414.95 692.86 1409.04 692.004 1404.17 690.454C1400.94 689.427 1398.49 687.573 1395 687.174C1386.63 686.22 1379.79 689.113 1371.96 691.31C1368.06 692.404 1363.83 692.569 1360.17 694.41C1343.26 702.902 1327.42 719.326 1322.56 738C1320.66 745.297 1321.84 754.613 1322.71 762C1323.27 766.68 1322.88 771.41 1324.21 776C1327.09 785.934 1334.58 797.514 1342.1 804.571C1354.5 816.193 1372.99 823.398 1389.99 822.978C1393.19 822.898 1395.91 821.511 1399.04 821.128C1403.65 820.563 1408.58 820.883 1413 819.161C1432.51 811.547 1448.45 794.098 1453.3 774.089C1454.1 770.801 1456.5 768.485 1456.89 764.996C1457.54 759.166 1458.08 750.721 1456.57 745.039C1455.96 742.757 1454.32 741.034 1453.56 738.83C1452.47 735.657 1452.83 732.21 1451.6 729.015C1448.63 721.333 1442.62 713.483 1436.96 707.529C1432.21 702.536 1423.26 699.635 1420 694M147 690C146.058 697.62 147 705.303 147 713L147 759C147 779.363 144.28 801.965 148 822C158.291 819.077 155 804.454 155 796L155 718C161.992 721.902 165.866 730.991 169.1 738.039C171.209 742.634 171.36 747.043 177 748C177.115 760.668 187.104 775.443 193.121 786.286C195.655 790.852 195.393 796.201 201 798C201.712 806.704 207.05 813.024 210 821L219 821C220.712 815.669 223.948 812.527 226.351 807.791C227.579 805.371 227.525 802.569 228.549 800.089C230.287 795.878 232.887 791.308 234.918 787.17C242.534 771.656 251.437 756.879 258.198 741.001C260.858 734.754 264.319 727.992 268.475 722.72C269.577 721.322 271.846 716.679 273.992 719.466C276.983 723.351 273.714 733.209 274.17 738C276.023 757.49 275 777.409 275 797C275 804.578 271.591 820.177 282 821C285.26 803.441 283 783.84 283 766C283 747.945 282.827 729.992 282.039 712C281.713 704.546 282.932 697.411 282 690C265.964 690.879 270.336 711.097 259 718C257.964 723.814 254.723 728.646 252.401 734C251.473 736.142 251.257 738.725 250.002 740.701C248.616 742.885 246.017 743.735 244.854 746.143C243.823 748.279 243.902 750.757 242.865 752.911L232.316 774.911C229.392 781.057 226.065 783.706 226 791C217.935 793.656 220.617 803.685 211 804C208.943 790.069 196.238 780.197 195 766C189.164 762.603 186.69 752.936 184.006 747.054C182.748 744.297 180.084 742.634 178.885 739.871C173.929 728.45 169.777 717.351 163.159 706.576C158.407 698.84 157.934 690.793 147 690M552 796C556.267 794.539 556.819 790.914 558.383 787C559.656 783.816 561.886 781.161 563.15 778C564.036 775.785 563.986 773.335 564.877 771.129C565.836 768.757 567.976 767.204 568.995 764.871C570.2 762.117 569.579 758.926 570.984 756.259C572.032 754.27 573.939 752.979 574.853 750.871C576.057 748.093 575.502 744.975 576.584 742.209C577.64 739.508 580.181 737.639 581.401 734.957C582.707 732.085 582.501 728.973 583.584 726.089C585.076 722.119 587.882 717.954 589.749 714.039C592.809 707.626 599.896 698.142 598 691C595.696 691.558 592.539 691.644 590.558 693.024C587.927 694.856 587.682 698.247 586.51 700.961C584.435 705.765 581.427 710.403 579.025 715.089C574.317 724.275 572.399 734.58 568.302 743.911C567.301 746.19 565.402 747.872 564.302 750.089C560.976 756.793 558.752 764.098 555.79 771C553.665 775.952 552.015 781.149 549.866 786C547.28 791.835 544.337 796.414 544 803C536.573 801.817 532.693 790.777 532 784C527.922 781.626 528.192 778.133 526.577 774.054C525.471 771.259 522.84 769.614 521.727 766.871C520.713 764.373 521.03 761.546 520.121 759C519.093 756.12 516.999 753.812 515.839 751C514.775 748.422 514.684 745.573 513.585 743C510.934 736.797 507.072 731.055 504.39 724.911C503.165 722.104 503.421 718.889 502.147 716.129C501.162 713.998 499.088 712.768 497.987 710.741C494.595 704.495 496.563 693.089 487.094 690.752C482.368 689.585 483.287 696.434 483.77 698.999C485.254 706.875 491.064 713.758 494.101 721.089C496.449 726.756 499.267 732.377 501.45 738.039C502.533 740.849 502.646 744.001 503.919 746.714C508.914 757.364 515.195 767.904 519.122 779C520.038 781.589 519.809 784.398 520.701 786.985C523.35 794.669 528.28 802.167 532.016 809.286C533.588 812.28 533.157 815.835 535.653 818.427C540.946 823.925 544.362 818.842 546.245 813.999C548.801 807.425 551.938 803.351 552 796M681 719C687.241 722.325 689.667 730.935 692.914 736.871C694.159 739.145 696.47 740.697 697.413 743.129C699.16 747.637 697.511 752.119 703 754C703.859 762.39 709.713 769.849 713.777 777C718.759 785.766 722.398 795.245 727.171 804.17C729.736 808.967 731.227 817.072 736.529 819.915C739.284 821.393 743.257 818.681 746 818C746.974 811.372 749.605 807.562 752.691 801.911C753.866 799.758 754.039 797.262 755.156 795.089C757.898 789.755 761.579 784.888 764.754 779.816C768.918 773.162 770.145 764.923 773.844 758.184C778.24 750.178 782.233 742.279 786.121 734C788.234 729.5 790.828 725.931 792 721C799.043 724.696 797 734.151 797 741L797 797C797 802.658 796.837 808.344 797.015 813.999C797.076 815.928 796.993 818.64 798.742 819.933C800.77 821.431 804.689 820.181 807 820C807 791.754 805.804 763.216 807.039 735C807.471 725.131 807.358 715.859 807.043 706C806.935 702.596 808.869 697.572 807.382 694.434C805.663 690.805 798.45 691.408 796.498 694.434C791.112 702.786 786.903 712.91 782.655 721.946C779.902 727.803 777.294 731.165 777 738C770.483 740.012 772.143 745.881 768.896 750.714C762.278 760.566 758.635 771.708 752.866 782.004C751.47 784.495 749.331 786.472 748.005 789C744.837 795.041 743.613 801.621 737 805C732.013 789.6 718.127 776.346 716 760C711.965 757.541 710.773 752.495 710 748C705.668 745.612 705.94 740.978 703.406 737C700.716 732.777 699.763 728.493 697.432 724.259C693.698 717.479 689.398 711.291 686.353 704.015C684.666 699.984 680.347 689.371 675.054 690.711C670.994 691.74 671.025 695.56 671.001 699.001C670.95 706.333 671 713.667 671 721L671 792L671 810C671.005 812.707 670.582 816.155 672.179 818.525C674.881 822.536 679.504 821.772 679.941 816.981C680.837 807.154 680 796.87 680 787L680 761C680 747.266 678.488 732.529 681 719M845 821C847.915 805.3 846 787.945 846 772L846 738C846 725.001 846.089 711.999 845.999 699C845.979 696.064 844.804 687.243 839.603 691.047C837.611 692.504 838.016 695.863 838.001 698L838 715L838 789L838 810C838.001 812.681 837.468 816.318 839.026 818.682C840.419 820.796 842.747 820.828 845 821M1135 690C1130.58 700.431 1133 714.803 1133 726L1133 802C1128.16 801.213 1125.83 797.501 1122.85 793.845C1118.83 788.936 1114.74 784.097 1110.65 779.246C1092.58 757.817 1073.69 737.269 1055.79 715.781C1050.61 709.558 1044.32 704.396 1039.17 698.036C1037.26 695.67 1035.21 691.802 1031.83 691.437C1028.32 691.058 1025.69 693.82 1025.15 697.04C1023.82 704.889 1024 713.063 1024 721L1024 793L1024 811C1024 813.236 1023.53 816.508 1025.03 818.397C1027.69 821.762 1033.03 819.648 1033.77 815.941C1035.38 807.864 1034 798.232 1034 790L1034 766L1034 728C1034 723.778 1032.32 714.698 1035.6 711.451C1040.18 706.926 1046.9 719.757 1048 723C1051.86 724.168 1052.13 726.466 1054.71 729.201C1059.01 733.768 1063.63 736.89 1066 743L1070 743C1070.87 747.188 1073.29 749.062 1075.88 752.3C1080.12 757.612 1083.75 762.666 1088.47 767.54C1098.36 777.744 1106.56 789.686 1116.29 800.089C1120.64 804.752 1125.92 813.929 1132 816C1132.91 821.243 1139.98 822.492 1141.68 816.786C1142.49 814.06 1141.95 810.822 1142.29 808C1143.53 797.421 1143 786.65 1143 776L1143 693L1135 690M633.318 692.068C630.959 693.487 631.05 696.601 631.005 699C630.892 704.995 631 711.003 631 717L631 795C631 801.668 629.921 809.394 631.228 815.941C631.872 819.165 634.716 820.715 637.856 819.392C640.895 818.111 640.942 814.838 640.995 812C641.127 805.005 641 797.996 641 791L641 713C641 707.529 642.205 700.411 640.682 695.133C639.829 692.176 636.11 690.389 633.318 692.068z"/>
<path style="fill:#fafafa; stroke:none;" d="M428 795C428.817 790.49 431.637 787.902 433.277 783.83C437.959 772.209 441.472 758.762 439.867 746C439.181 740.541 435.956 732.13 433.447 727.17C431.582 723.484 429.472 721.256 429 717C424.939 716.367 423.15 714.966 422 711C415.328 709.121 410.152 703.168 403.718 700.545C394.944 696.967 385.27 698 376 698C369.75 698 362.975 697.768 357.285 700.833C345.045 707.426 330.863 717.637 325.599 731.17C324.54 733.891 325.21 737.008 324.545 739.83C321.843 751.293 321.38 766.754 325.738 778C332.522 795.509 350.731 809.908 369 813.62C374.716 814.782 381.187 814 387 814C390.073 814 393.789 814.532 396.715 813.412C403.254 810.908 411.041 806.264 416.961 802.402C420.895 799.835 423.362 796.3 428 795M1342 717C1341.37 721.729 1338.6 724.064 1336.43 728.089C1334.31 732.011 1334.1 735.663 1330 738C1330 747.482 1327.94 759.652 1330.31 768.83C1331.17 772.16 1333.99 774.787 1335.28 778C1337.08 782.507 1339.05 788.417 1342.23 792.161C1356.9 809.452 1384.73 819.606 1407 812.316C1435.28 803.053 1452.41 773.815 1446.51 745C1444.96 737.432 1444.46 732.677 1440.46 725.961C1435.01 716.817 1428.12 710.553 1419.29 704.68C1408.93 697.797 1398.01 698 1386 698C1373.85 698 1365.56 700.294 1355.29 706.855C1350.49 709.917 1347.49 715.416 1342 717z"/>
<path style="fill:#292929; stroke:none;" d="M1571 718C1569.04 717.17 1566.95 715.67 1564.83 715.353C1563.57 715.166 1562.19 715.327 1561.02 715.823C1547.6 721.489 1566.36 736.798 1570.28 723.985C1570.87 722.037 1570.91 720.013 1571 718M1899.06 716.653C1890.76 719.502 1897.74 731.663 1905.87 728.106C1909.54 726.498 1911.56 720.192 1908.11 717.318C1905.87 715.458 1901.63 715.772 1899.06 716.653M1539.32 731.029C1532.68 735.409 1540.7 746.668 1547.43 741.972C1554.49 737.042 1546.32 726.405 1539.32 731.029M1934 735C1931.44 734.298 1929.26 732.257 1926.75 731.731C1919.76 730.265 1917.71 742.873 1926 743.719C1927.31 743.852 1928.79 743.323 1929.94 742.771C1931.37 742.085 1932.69 741.102 1933.4 739.645C1934.08 738.22 1933.95 736.526 1934 735M1562.74 743.032C1559.41 745.601 1559.73 752.315 1562.28 755.111C1567.16 760.473 1574.04 764.202 1579.34 769.22C1586.85 776.339 1592.77 784.876 1601.01 791.309C1604.52 794.052 1612.05 804.05 1617.4 799.968C1623.67 795.182 1614.78 787.294 1611.7 784.314C1600.07 773.059 1588.68 761.315 1577.54 749.565C1574.68 746.539 1567.45 739.396 1562.74 743.032M1899.46 742.989C1890.86 747.643 1885.15 757.547 1878.49 764.319C1869.79 773.177 1858.12 780.254 1850.74 790.455C1847.21 795.346 1850.87 802.109 1856.96 800.424C1861.66 799.122 1865.41 794.359 1868.84 791.123C1878.31 782.202 1886.93 772.449 1896.02 763.211C1899.6 759.568 1906.18 757.377 1908.97 753.363C1913.02 747.533 1905.48 739.724 1899.46 742.989M1555 797C1555.81 790.615 1556 784.439 1556 778L1552 778C1550.29 766.923 1534.32 763.82 1525 766.649C1511.11 770.865 1506.31 788.94 1512.75 800.91C1515.2 805.464 1519.47 806.709 1523.83 808.786C1528.96 811.232 1534.42 811.771 1539.99 810.057C1546.86 807.94 1549.11 800.307 1555 797M1931 766.818C1913.68 772.986 1908.7 797.371 1925.26 807.536C1932.97 812.269 1941.02 810.921 1948.96 807.856C1960.33 803.469 1963.45 785.148 1957.57 775.39C1952.72 767.343 1939.57 763.764 1931 766.818z"/>
<path style="fill:#fafafa; stroke:none;" d="M1520 796C1524.55 796.704 1527.42 800.705 1532 800.922C1534.73 801.051 1536.93 800.094 1539.06 798.446C1541.01 796.936 1542.39 795.225 1543.37 792.957C1550.9 775.453 1521.26 770.739 1519.19 786.004C1518.73 789.372 1519.39 792.703 1520 796M1949 779C1945.62 777.946 1942.58 777.042 1939 777.005C1936.33 776.978 1933.58 777.007 1931.1 778.148C1916.82 784.747 1928.23 807.84 1941.98 800.427C1943.66 799.526 1945.16 798.3 1946.35 796.815C1947.91 794.869 1948.92 792.416 1949.47 790C1950.31 786.3 1949.47 782.683 1949 779z"/>
<path style="fill:#292929; stroke:none;" d="M1658.15 778.742C1654.51 780.381 1654.68 784.861 1656.73 787.74C1658.33 789.99 1660.95 791.468 1662.84 793.464C1667.2 798.045 1672.2 806.717 1679.85 803.258C1684.02 801.373 1682.5 796.919 1680.43 794C1676.34 788.248 1666.55 774.962 1658.15 778.742M1800 802C1802.04 794.975 1811.27 793.108 1813.49 785.961C1815.41 779.754 1810.62 776.914 1805.09 779.032C1799.4 781.214 1791.8 788.719 1789.02 794.089C1787.77 796.509 1787.51 800.997 1790.43 802.382C1793.07 803.633 1797.2 802.221 1800 802M1637 810L1637 814C1642.51 816.625 1646.27 824.631 1652.91 824.722C1657.8 824.789 1659.76 819.178 1657.91 815.286C1655.34 809.878 1647.91 802.915 1642 802C1641.28 797.724 1636.32 791.479 1631.95 790.318C1625.6 788.635 1620.32 793.438 1624.18 799.726C1625.62 802.083 1628.58 803.305 1630.54 805.204C1632.76 807.361 1634.03 809.037 1637 810M1844 801C1843.79 799.324 1843.59 797.647 1843.23 795.995C1840.25 782.59 1828.25 798.773 1824.6 802.42C1821.2 805.818 1815.74 808.393 1813.89 813.043C1811.68 818.622 1815.44 822.057 1820.99 820.566C1824.92 819.51 1828.42 815.77 1831.14 812.895C1835.15 808.651 1838.94 803.986 1844 801z"/>
</svg>
