<?xml version="1.0" standalone="yes"?>
<svg xmlns="http://www.w3.org/2000/svg" width="2058" height="1017">
<path style="fill:#292929; stroke:none;" d="M498 201C504.319 202.57 508.13 206.799 515.001 207.014C519.415 207.152 523.961 207.847 528 209.718C530.646 210.944 533.662 213.916 536.775 213.535C541.885 212.909 542.244 200.724 539.972 197.513C538.377 195.259 534.421 194.356 532 193.282C524.969 190.162 517.568 188.795 510 187.729C506.789 187.277 503.567 186.599 500.863 188.893C497.315 191.903 498 196.824 498 201M870 355C865.849 355.086 857.967 354.677 854.475 357.028C848.754 360.877 851.385 369.826 853 375C862.001 374.608 869.015 371.662 877.089 368.569C886.556 364.942 896.07 360.594 903.59 353.367C910.525 346.703 914.918 338.404 919.231 330C929.79 309.428 934.896 286.308 931.08 263C928.116 244.893 922.683 227.738 910.152 213.769C905.415 208.488 900.32 202.178 893 202C890.137 192.718 872.35 190.069 864 188.4C858.616 187.323 852.738 186.026 851.279 193.005C848.247 207.499 864.853 206.201 873.83 210.869C886.11 217.254 895.241 227.937 901.549 239.961C902.835 242.412 904.941 244.381 905.701 247.089C906.953 251.555 906.701 256.444 907.44 261C908.043 264.716 909.547 268.25 909.896 272C911.371 287.852 908.913 303.813 902.209 318.039C900.604 321.446 900.691 325.519 898.466 328.625C893.659 335.335 886.894 341.405 880.406 346.456C876.292 349.659 871.734 349.367 870 355M824 188.44C800.804 191.978 777.264 209.367 766.313 230.089C763.137 236.1 761.082 243.53 758.946 250C757.695 253.789 755.125 257.061 754.343 261C753.27 266.406 754 272.508 754 278C754 284.896 753.364 292.148 754.184 299C755.218 307.635 758.786 316.851 761.745 325C769.35 345.943 784.579 360.793 805 369.481C812.041 372.476 822.637 377.309 830.671 374.482C837.242 372.17 835.755 361.331 830.695 358.314C826.655 355.905 821.352 355.984 817 354.431C810.571 352.137 803.271 347.179 798.205 342.625C791.044 336.187 785.83 326.641 782.278 318.039C781.224 315.489 779.004 313.625 778.314 310.911C775.717 300.694 776 289.539 776 279C776 270.339 775.888 259.244 778.724 251C784.715 233.581 798.024 219.093 814.039 210.4C819.701 207.327 828.992 209.155 833.146 203.852C839.836 195.312 833.979 186.918 824 188.44M1206 350C1206.61 357.713 1213.39 358.945 1218.91 362.545C1231.3 370.627 1244.76 376.83 1260 374C1260.49 370.122 1262.02 365.097 1260.4 361.326C1257.63 354.854 1249.47 356.097 1244 354.571C1239.82 353.405 1234.8 350.249 1231 348.07C1221.3 342.503 1211.46 329.452 1207.7 318.911C1206.68 316.055 1207.16 312.92 1206.39 310C1205.38 306.183 1202.87 302.924 1202.22 299C1198.09 273.946 1203.82 245.976 1220.21 226.282C1226.19 219.095 1233.3 212.999 1242 209.386C1245.77 207.82 1250.03 207.708 1253.71 205.944C1258.67 203.569 1262.79 200.008 1261.77 194.015C1260.49 186.504 1252.35 187.83 1247 189.576C1243.05 190.866 1238.85 191.379 1235 192.951C1226.46 196.435 1218.35 202.292 1210.95 207.695C1205.52 211.666 1202.77 216.585 1198.9 221.871C1179.89 247.869 1175.94 281.794 1183.11 313C1185.11 321.675 1189.01 327.221 1192.61 335.089C1195.2 340.729 1199.22 348.836 1206 350M1298 355C1290.83 355.308 1283.48 355.571 1278.23 361.015C1274.77 364.603 1275.8 373.229 1281.22 374.668C1285.23 375.731 1290.18 373.606 1294 372.576C1305.53 369.467 1315.06 363.923 1324.24 356.501C1329.47 352.279 1334.55 349.073 1338.67 343.575C1346.95 332.547 1351.4 319.222 1354.52 306C1360.12 282.335 1359.53 258.194 1349.08 236C1346.13 229.718 1344.53 223.04 1340.03 217.455C1328.87 203.592 1313.35 194.039 1296 190.12C1290.22 188.814 1280.58 185.64 1276.99 192.305C1274.13 197.626 1278.17 203.626 1283.29 205.454C1288.34 207.26 1293.99 207.051 1298.91 209.565C1306.49 213.436 1316.99 221.532 1322.09 228.415C1323.68 230.557 1324.16 233.36 1325.35 235.714C1329.95 244.78 1333.95 255.97 1335.74 266.089C1339.82 289.093 1333.03 317.106 1319.29 335.41C1316.26 339.441 1312.2 343.187 1307.96 345.91C1303.72 348.629 1299.52 349.862 1298 355M1677 373L1677 362C1673.67 361.034 1671.96 358.522 1668.87 357.143C1664.32 355.109 1658.89 355.013 1654 355L1654 351C1640.93 348.952 1629.55 334.068 1624.14 322.911C1622.78 320.106 1623.08 316.883 1621.93 314C1617.43 302.799 1617 293.08 1617 281C1617 259.714 1621.36 237.657 1637.58 222.326C1642.26 217.904 1649.98 211.644 1656.09 209.534C1660.1 208.148 1664.89 208.375 1668.73 206.438C1671.73 204.92 1672.6 202.067 1676 201C1676 198.492 1676.37 195.505 1675.4 193.13C1672.17 185.174 1661.75 188.845 1656 190.952C1640.34 196.695 1625.63 205.472 1614.79 218.304C1609.63 224.405 1607.32 231.795 1604.42 238.911C1602.93 242.556 1600.04 245.069 1598.88 249.001C1597.62 253.285 1598.43 257.669 1597.62 262C1595.63 272.691 1593.33 282.996 1594.09 294C1594.45 299.27 1596.26 303.961 1597.61 309C1601.45 323.325 1606.24 335.741 1615.91 347.321C1630.65 364.972 1653.61 377.801 1677 373M1696 357C1694.77 359.155 1692.5 360.805 1691.6 363.129C1688.55 370.956 1695.44 374.42 1702 373.907C1711.73 373.145 1720.17 368.329 1728.29 363.47C1730.61 362.081 1733.44 361.901 1735.62 360.273C1767.63 336.372 1775.77 296.02 1771.16 258C1770.55 252.98 1770 246.938 1768.31 242.174C1767.38 239.538 1765.38 237.453 1764.38 234.826C1762.29 229.321 1759.03 221.823 1753 220C1752.23 214.576 1748.65 212.192 1744.96 208.537C1735.69 199.374 1723.91 192.628 1711 190.701C1704 189.655 1690.49 183.677 1691.05 195.999C1691.56 207.333 1705.55 206.319 1712.87 209.789C1722.74 214.464 1730.03 221.362 1736.78 230C1739.4 233.359 1743.07 238.031 1744.44 242.089C1745.52 245.288 1745.1 248.751 1746.25 252C1755.73 278.781 1751.26 314.001 1733.29 336.629C1730.31 340.388 1726.05 342.688 1722.28 345.501C1714.49 351.33 1705.89 356.137 1696 357M423 350C429.891 349.538 441.27 341.429 439.483 333.286C438.28 327.806 433.641 322.668 430.969 317.83C427.442 311.442 425.52 303.17 424.326 296C422.454 284.765 424.663 273.841 426.675 263C428.522 253.048 430.256 244.567 436.326 236.039C439.087 232.159 443.132 229.164 446.306 225.629C455.511 215.376 465.436 207.301 480 207C481.23 202.435 485.674 195.277 481.972 190.603C478.915 186.743 470.773 189.872 467 190.629C458.474 192.338 453.038 196.574 445.791 200.855C438.46 205.185 430.33 209.403 424.84 216.375C422.872 218.874 422.299 222.052 420.622 224.714C417.261 230.05 412.768 235.323 410.217 241.089C405.673 251.363 404.664 261.995 403.91 273C402.878 288.073 402.172 303.265 406.505 318C408.277 324.024 412.038 329.49 414.738 335.089C415.698 337.08 415.765 339.537 417.019 341.367C419.325 344.733 421.862 345.743 423 350M714 372C713.204 364.013 709.346 358.643 705.387 352C699.881 342.763 693.732 334.443 687.68 325.625C684.755 321.364 682.79 316.502 679.652 312.255C677.948 309.95 675.493 308.407 673.965 305.95C670.175 299.853 667.494 292.911 663.405 287.015C661.75 284.628 659.269 283.102 657.574 280.791C655.412 277.842 654.992 274.04 652.815 271.001C647.201 263.163 642.784 255.108 637.661 246.964C634.341 241.687 630.437 239.793 630 233C624.924 231.459 625.288 227.187 622.37 223.325C611.996 209.594 603.191 183.799 581.148 190.318C574.522 192.277 582.457 200.735 584.449 203.576C588.612 209.512 591.709 215.663 595.437 221.741C599.485 228.341 604.643 234.124 608.335 241.001C610.841 245.669 614.363 249.697 617.279 254.089C625.339 266.23 633.106 278.18 641.417 290.166C644.915 295.211 647.175 301.351 650.299 306.626C656.57 317.216 665.014 327.888 672.53 337.47C674.266 339.682 674.761 342.549 676.069 345C679.351 351.145 683.01 357.3 687.053 362.986C689.063 365.813 692.071 370.013 695.375 371.411C700.41 373.542 708.582 372 714 372M701.148 190.858C697.863 192.433 698.023 195.848 698.001 199.001C697.95 206.333 698 213.667 698 221C698 251.895 696.658 283.124 698.019 313.985C698.293 320.191 704.956 328.031 708.424 333.165C709.729 335.097 711.556 339.186 714.585 338.248C717.548 337.331 716.987 332.327 716.999 330C717.047 321 717 312 717 303L717 213C717 207.974 719.241 195.657 715.397 191.893C713.264 189.806 709.754 189.976 707 190.005C705.059 190.026 702.941 189.998 701.148 190.858M973.622 191.028C971.245 193.025 973.459 197.562 973.976 200C975.876 208.964 983.592 215.459 986.475 224C991.485 238.839 1001.3 252.537 1008.95 266.17C1010.47 268.868 1010.56 271.997 1011.96 274.714C1014.81 280.276 1019.08 285.373 1021.61 291.089C1022.89 293.984 1023.05 297.174 1024.65 299.961C1028.51 306.716 1033.48 312.629 1036.34 319.985C1039.22 327.377 1051.16 341.728 1060.2 333.397C1064.12 329.78 1061.79 325.862 1059.91 322C1055.9 313.736 1051.01 306.092 1046.59 298.039C1036.78 280.162 1027.65 261.639 1018.16 243.83C1016.88 241.422 1016.82 238.603 1015.56 236.17C1012.68 230.58 1008.76 225.419 1005.89 219.83C1004.07 216.266 1003.47 212.879 1001 209.576C994.685 201.125 993.641 190.134 981 190.004C978.832 189.982 975.423 189.514 973.622 191.028M1867 276C1867.35 282.544 1870.87 284.949 1873.84 290.205C1876.4 294.716 1876.3 298.428 1882 300C1883.04 306.353 1887.61 310.999 1890.77 316.263C1898.41 329.033 1906.54 341.571 1914.94 354.004C1917.24 357.423 1919.89 360.713 1922.1 364.17C1923.54 366.432 1924.17 369.413 1926.53 370.972C1931.16 374.017 1941.6 372 1947 372C1947 352.939 1925.87 342.09 1922 324C1917.59 321.969 1918.32 319.093 1915.84 315.548C1913.95 312.848 1911.09 310.984 1909.12 308.13C1902.63 298.687 1897.49 288.171 1891.08 278.441C1887.19 272.526 1880.65 265.874 1879 259C1873.7 256.063 1870.59 247.375 1867.5 242.17C1860.62 230.591 1851.53 220.345 1844.67 208.715C1840.46 201.577 1837.44 191.703 1828 190.214C1824.46 189.655 1813.36 188.336 1812.42 193.228C1811.62 197.429 1815.16 200.45 1817.4 203.374C1819.96 206.718 1822.11 210.689 1824.53 214.184C1835.12 229.454 1843.28 246.376 1854.5 261.17C1857.98 265.76 1861.46 274.319 1867 276M1943 338C1945.78 338.058 1948.29 338.352 1951 339C1950.98 301.425 1950 263.66 1950 226C1950 217.122 1950.8 207.805 1949.57 199.001C1949.08 195.469 1948.84 191.789 1944.94 190.514C1940.95 189.21 1933.71 189.948 1931.74 194.225C1930.43 197.069 1931 200.957 1931 204L1931 225L1931 284C1931 293.603 1929.56 304.5 1931.22 313.961C1932.78 322.812 1940.98 329.409 1943 338M106 206C117.281 210.029 131.1 208 143 208L216 208C221.796 208 231.293 209.819 236.625 207.397C241.713 205.085 244.256 198.172 240.276 193.978C237.153 190.688 233.197 191.002 229 191L207 191L137 191L118 191C115.197 191.001 111.671 190.534 109.148 192.028C104.706 194.658 106 201.648 106 206M274.133 191.742C268.131 194.381 268.886 205.676 275.105 207.566C281.791 209.598 291.04 208 298 208L347 208L364 208C366.268 207.995 369.334 208.425 371.276 206.976C375.494 203.83 377.115 193.013 370.941 191.318C364.15 189.453 355.028 191 348 191L301 191C293.409 191 281.142 188.661 274.133 191.742M1073 316L1076 316C1086.67 294.882 1097.78 273.874 1108.24 252.911C1111.77 245.826 1112.74 233.445 1122 232L1122 290L1122 327L1122 353C1122 357.415 1121.26 362.711 1122.88 366.91C1126.41 376.044 1140.6 375.01 1143.44 365.999C1144.78 361.739 1144 356.419 1144 352L1144 325L1144 236L1144 204C1144 200.859 1145.21 194.406 1142.4 192.179C1139.87 190.174 1135 191 1132 191C1128.25 191 1123.59 190.305 1120.04 191.742C1112.99 194.602 1110.41 205.883 1107.15 212C1103.76 218.36 1100.35 224.933 1097.22 231.325C1096.03 233.76 1096.02 236.553 1094.84 239C1089.06 251.017 1082.12 262.482 1077.19 274.715C1075.45 279.023 1073.78 284.793 1071.43 288.711C1069.66 291.656 1066.73 293.506 1066.15 297.089C1064.75 305.698 1069.2 309.217 1073 316M1373 192C1373 196.302 1371.26 205.26 1376.15 207.397C1378.99 208.636 1382.98 208 1386 208L1405 208L1473 208L1494 208C1497.18 208 1501.54 208.718 1504.44 207.142C1509.53 204.388 1512.11 194.8 1505.79 192.032C1498.99 189.056 1488.29 191 1481 191L1461 191L1425 191C1407.77 191 1390.09 189.84 1373 192M1541.23 191.742C1537.41 193.527 1538.01 198.499 1538 202L1538 233L1538 344C1538 353.85 1533.91 373.06 1548 372.992C1549.51 372.984 1551.21 373.043 1552.62 372.397C1555.38 371.132 1558.17 366.766 1558.68 363.83C1559.23 360.681 1558.09 357.185 1558.01 354C1557.83 346.342 1558 338.66 1558 331L1558 220C1558 209.355 1562.18 191.008 1547 191.008C1545.12 191.008 1542.97 190.928 1541.23 191.742M578 372L593 372C596.34 357.388 595 341.959 595 327L595 253C594.984 242.868 590.05 237.942 585.17 229.576C583.802 227.23 581.92 221.306 578.278 221.921C575.275 222.428 576.004 227.924 576 230L576 257L576 330C576 343.862 574.443 358.555 578 372M170.044 222.573C165.764 223.878 164.431 227.911 164.093 232C163.387 240.562 164 249.41 164 258L164 347C164 357.376 160.679 371.999 175 371.998C176.589 371.998 178.345 372.119 179.891 371.682C183.88 370.556 183.948 366.472 183.996 363C184.117 354.337 184 345.664 184 337L184 247C184 238.053 187.704 222.361 175 222.055C173.363 222.015 171.621 222.092 170.044 222.573M272.318 223.028C268.42 225.629 270 233.989 270 238L270 280L270 342C270 348.972 267.634 361.368 271.279 367.526C275.262 374.256 287.543 372 294 372L355 372C360.371 372 373.181 374.335 377.258 370.258C378.63 368.886 378.881 366.84 378.941 364.997C379.255 355.217 370.555 355.003 363 355L311 355C306.079 355 296.151 356.892 292.603 352.682C290.631 350.342 291.006 346.846 291 344L291 325L291 247C291 241.442 293.304 229.036 289.258 224.703C286.777 222.046 282.347 222.023 279 222.005C276.862 221.993 274.189 221.779 272.318 223.028M1434 372L1451 372C1452.61 334.423 1452 296.664 1452 259L1452 232C1451.99 228.69 1452.51 224.201 1448.85 222.603C1447.08 221.829 1444.89 222.01 1443 222.001C1440.23 221.987 1436.81 221.622 1434.57 223.603C1431.92 225.956 1432.02 229.761 1432 233C1431.96 239.999 1432 247 1432 254L1432 321C1432 338.182 1431.51 355.064 1434 372M1808 222C1808 241.291 1809 260.642 1809 280L1809 320L1809 343C1809 349.889 1806.73 361.773 1810.03 367.956C1814.09 375.581 1824.62 373.917 1828.03 366.829C1829.58 363.604 1829 359.475 1829 356L1829 333C1829 313.956 1828.48 294.977 1828.01 276C1827.79 266.772 1828.92 257.173 1827.87 248C1827.14 241.593 1823.26 239.814 1820.45 234.857C1816.7 228.223 1817.48 222.688 1808 222M969 226C966.379 237.01 968 249.718 968 261L968 328L968 354C968 358.736 967.331 364.358 969.148 368.856C971.384 374.391 980.206 373 985 373C985.55 369.488 987.432 366.4 987.87 362.911C989.451 350.334 988 336.679 988 324C988 302.025 988.567 279.966 987.985 258C987.811 251.424 984.57 248.219 981.338 242.911C979.394 239.718 978.325 236.127 976.269 233.001C974.001 229.552 973.271 226.931 969 226M308.434 272.028C303.692 275.291 305.716 285.257 311.044 286.682C315.001 287.74 319.93 287 324 287L350 287C354.105 287 360.886 288.259 364.451 285.836C370.211 281.92 368.439 273.054 361.995 271.419C357.631 270.311 352.472 271 348 271L322 271C318.222 271 311.702 269.778 308.434 272.028M448 348C446.298 352.355 440.247 356.039 441.672 361C443.01 365.658 446.981 366.911 451 368.547C457.872 371.345 462.415 373.67 470 374.039C489.155 374.97 508.232 377.52 526 369.27C528.797 367.971 532.095 368.035 534.79 366.566C539.85 363.808 542.837 355.409 543 350C539.83 349.414 536.365 348.542 533.259 349.89C530.863 350.931 529.419 353.294 526.946 354.262C524.124 355.368 520.936 354.822 518 355.375C512.874 356.341 508.3 357.933 503 357.996C491.629 358.131 480.081 357.975 469.015 354.945C464.835 353.801 462.432 350.304 458.535 348.765C455.314 347.492 451.396 348 448 348M1312 445C1312.63 442.076 1313.77 439.704 1315.04 437C1316.81 433.241 1316.53 424.906 1310.47 429.747C1307.79 431.886 1300.7 444.153 1306.23 446.268C1308 446.945 1310.37 445.576 1312 445M1584 676C1577.3 671.699 1570.65 667.188 1562.17 669.303C1547.3 673.012 1545.05 691.366 1556.17 700.191C1566.45 708.347 1576.76 702.136 1582.26 692.286C1584.28 688.665 1587.88 683.446 1591.73 688.498C1596 694.118 1598.63 701.857 1601.83 708.17C1603.24 710.939 1605.43 713.825 1605.71 716.999C1606.26 723.101 1598.73 725.776 1598.1 732.001C1597.38 739.245 1600.21 739.981 1604.04 745.133C1610.51 753.844 1615.86 763.648 1628 764C1630.09 759.965 1637.04 752.968 1641.96 753.192C1645.3 753.344 1647.47 755.994 1650.18 757.561C1654.58 760.094 1659.44 762.338 1664 764.577C1676.71 770.823 1689.33 774.943 1703 778.059C1714.64 780.714 1705.94 793.253 1711.74 799.411C1714.09 801.906 1718.84 801.908 1722 801.985C1730.96 802.205 1743.36 804.057 1751.96 801.427C1762.65 798.154 1751.74 782.199 1763 777.815C1767.91 775.905 1773.09 776.746 1778 775.247C1786.43 772.673 1794.79 768.486 1802.83 764.946C1810.85 761.416 1817.32 753.83 1825.96 751.929C1835.81 749.762 1839.13 765.162 1849.96 759.276C1855 756.537 1858.75 751.307 1862.89 747.424C1865.89 744.606 1869.66 742.157 1871.99 738.714C1874.6 734.857 1874.72 729.66 1870 728C1869.11 722.31 1862.24 719.917 1862.61 714.039C1862.8 710.922 1865.49 708.653 1866.78 705.961C1870.45 698.264 1876.54 690.731 1879.44 682.714C1880.31 680.304 1879.83 677.641 1880.46 675.17C1881.37 671.609 1883.71 668.584 1884.59 665C1885.52 661.189 1885.28 657.427 1887.85 654.148C1894.36 645.845 1908.92 656.082 1914.82 644.957C1915.64 643.411 1915.85 641.718 1915.96 640C1916.52 631.072 1919.18 613.981 1910.98 608.344C1903.61 603.278 1892.53 609.032 1887.93 598.985C1885.39 593.418 1885.08 586.125 1883.75 580.17C1881.9 571.864 1878.04 562.648 1874.08 555.129C1872.88 552.829 1870.77 551.216 1869.64 548.871C1868.57 546.665 1868.31 544.179 1867.07 542.039C1865.78 539.822 1862.76 537.859 1862.81 535.08C1862.91 529.781 1869.82 525.944 1872.6 522.101C1875.48 518.124 1875 513.682 1875 509C1864.22 505.169 1859.34 491.211 1848.99 487.194C1839.65 483.573 1836.61 499.862 1827 497.497C1819.4 495.625 1813.42 489.616 1806.71 485.876C1792.46 477.932 1776.56 471.002 1760 471C1759.24 467.944 1757.57 465.137 1757.14 462C1756.67 458.553 1757.84 454.324 1755.4 451.419C1752.94 448.499 1748.53 448.107 1745 448.015C1737.68 447.823 1730.33 447.997 1723 448C1719.73 448.001 1715.3 447.362 1712.65 449.742C1706.82 454.997 1713.44 465.562 1705.74 469.86C1702.62 471.602 1698.42 470.952 1695 471.746C1687.61 473.459 1680.14 476.282 1673.01 478.849C1662.5 482.638 1654.14 490.747 1644 495.277C1634.11 499.696 1632.3 486.775 1624.01 485.363C1620.3 484.731 1617.61 486.899 1615.05 489.304C1608.81 495.159 1599.3 502.14 1594.98 509.595C1588.68 520.491 1608.63 524.863 1604.45 534.911C1603.35 537.538 1601.16 539.535 1599.84 542.039C1595.34 550.544 1590.4 559.105 1587.02 568.17C1584.7 574.383 1582.88 582.433 1581.62 589C1580.89 592.771 1581.06 597.226 1579.18 600.671C1574.64 609.01 1564.8 603.389 1558.3 607.314C1555.76 608.849 1554.47 612.279 1554.13 615.089C1553.23 622.44 1553.24 631.558 1554.13 638.911C1554.31 640.448 1554.84 641.815 1555.29 643.282C1555.78 644.867 1555.93 646.944 1557.02 648.262C1561.27 653.395 1570.56 649.046 1575.71 652.028C1582.36 655.877 1583.92 669.015 1584 676M1811 466C1808.7 465.431 1806.34 464.054 1804 463.808C1803 463.703 1801.97 463.813 1801.02 464.167C1789.2 468.577 1805.73 482.433 1810.18 471.005C1810.83 469.348 1810.88 467.746 1811 466M1661.15 465.028C1654.25 469.138 1661.84 479.895 1668.61 475.681C1676.61 470.693 1669.26 460.195 1661.15 465.028M428 483C423.703 483.343 422.489 484.751 422 489C414.879 490.159 412.223 498.391 409.015 504C399.365 520.873 400.654 549.343 411.351 565.741C418.159 576.176 427.395 583.045 437.9 589.269C440.111 590.58 441.678 592.965 444.209 593.683C448.552 594.915 453.516 593.74 458 594.666C462.368 595.568 466.497 597.985 471 597.962C474.452 597.945 476.807 596.001 480.039 595.299C485.029 594.214 490.9 593.508 496 593L496 589C502.523 588.802 510.197 583.463 512 577C509.711 576.712 506.641 575.719 504.414 576.642C502.654 577.372 501.928 579.275 500.505 580.417C498.679 581.882 496.316 581.822 494.375 583.019C492.636 584.09 491.587 585.973 489.791 586.977C486.491 588.821 480.742 588.474 477 588.83C468.568 589.633 456.126 590.629 448.129 587.43C445.791 586.494 444.081 584.434 441.871 583.228C418.82 570.646 406.025 547.517 410.325 521C411.976 510.819 417.754 502.537 423.259 494.126C425.648 490.475 429.22 489.598 430 485C444.498 483.545 454.713 470.96 469.985 472.054C484.51 473.095 496.037 486.001 510 488C509.307 485.388 508.782 481.714 507.015 479.585C505.041 477.206 500.405 475.688 497.715 474.091C485.501 466.84 468.183 463.308 454.054 466.343C450.74 467.055 448.935 469.832 445.946 471.161C440.075 473.771 429.228 475.618 428 483M698 509C691.277 511.039 691.164 520.886 691.015 527C690.683 540.519 692.641 552.664 698.934 564.675C701.093 568.796 704.411 571.39 706 576C711.213 577.621 713.864 583.129 718.424 586.081C728.766 592.775 742.541 597.94 755 597.999C760.813 598.027 764.567 595.945 770 594.557C773.264 593.723 776.74 594.46 779.961 593.49C784.926 591.995 791.273 587.351 795.282 584.09C806.659 574.835 817.294 562.923 820.482 548C821.776 541.944 821 535.165 821 529C821 523.707 822.054 517.055 820.273 512C816.179 500.377 806.97 490.806 798.244 482.669C792.568 477.376 786.971 474.527 780 471.262C776.983 469.848 774.356 467.796 771 467.225C756.094 464.687 738.695 465.995 725.17 473.302C720.923 475.596 717.371 479.129 713.668 482.139C705.075 489.123 698.031 497.615 698 509M1120 496L1116 496C1114.36 489.144 1107.1 483.222 1101.54 479.114C1098.62 476.956 1095.87 476.238 1094 473C1087.62 472.14 1083.79 468.479 1077.99 466.652C1069.14 463.867 1053.56 464.733 1045.83 469.481C1042.1 471.77 1037.86 471.811 1034 473.684C1026.93 477.115 1020.97 483.185 1015.37 488.475C1012.61 491.088 1010.15 492.511 1008.26 496.005C1004.88 502.287 1000.8 509.965 999.468 517C998.312 523.116 999 529.798 999 536C999 540.728 998.182 546.365 999.43 550.961C1000.17 553.673 1002.23 555.618 1003.45 558.089C1004.65 560.533 1005.11 563.233 1006.55 565.576C1013.53 576.892 1023.45 583.289 1034.74 589.259C1037.11 590.509 1038.75 592.64 1041.3 593.615C1047.63 596.03 1055.37 595 1062 595C1068.91 595 1077.06 596.186 1083.83 594.725C1087.48 593.938 1089.98 590.931 1093.17 589.235C1106.44 582.183 1114.95 575.099 1121.13 561.054C1122.76 557.338 1126.11 555.213 1126.79 550.995C1127.76 544.901 1127 538.164 1127 532C1127 525.805 1127.73 519.074 1126.32 513.001C1124.88 506.815 1120.57 502.535 1120 496M1170 569L1176 569C1176.3 578.202 1186.31 585.197 1193.99 588.745C1197.05 590.159 1199.77 592.695 1203.04 593.571C1206.57 594.518 1210.37 593.707 1213.96 594.129C1216.74 594.455 1219.21 595.834 1222.04 595.907C1232.77 596.182 1243.43 593.541 1254 593C1256 588.991 1261.06 585.24 1265.69 588.183C1267.55 589.367 1269.74 597.26 1272.84 593.377C1275.62 589.885 1274 581.221 1274 577L1274 532L1270 532C1268.68 527.483 1264.09 528.008 1260 528L1233 528C1228.91 528 1224.33 527.153 1222 531C1224.08 532.085 1225.92 534.069 1228.21 534.687C1233.84 536.207 1241.19 535 1247 535C1252.38 535 1259.14 534.113 1263.61 537.819C1266.96 540.602 1266.98 545.005 1267 549C1267.04 557.666 1267 566.334 1267 575C1263.19 575.916 1261.17 577.199 1260 581C1254.22 581.425 1252.09 585.94 1246.95 587.432C1238.11 589.994 1226.13 589.579 1217 588.91C1200.08 587.669 1182.18 573.79 1174.66 559C1173.28 556.279 1170.96 553.937 1170.28 550.911C1167.04 536.524 1169.88 523.359 1170 509C1176.17 507.658 1175.41 501.692 1179.14 497.425C1185.87 489.721 1192.85 483.454 1202.09 479.12C1204.89 477.805 1208.05 477.74 1211 476.896C1214.42 475.915 1217.46 473.96 1221 473.329C1229.66 471.784 1238.1 475.005 1246 478.21C1252.95 481.029 1259.54 486.868 1267 488L1267 480C1263.26 479.068 1259.84 477.478 1256 477C1254.79 469.999 1243.97 468.171 1238 466.884C1216.04 462.151 1196.61 470.802 1180.72 485.465C1166.27 498.813 1157.37 522.343 1161.26 541.83C1162.05 545.833 1163.22 551.153 1164.73 554.911C1166.83 560.127 1169.53 563.053 1170 569M117 474C127.983 473.909 138.957 473 150 473C153.871 473 159.475 472.019 162.721 474.603C167.429 478.351 166 486.734 166 492L166 539C166 553.32 166.336 567.685 165.985 582C165.925 584.458 163.298 595.896 168.961 594.248C171.995 593.366 171.948 589.516 171.995 587C172.127 580.005 172 572.996 172 566L172 504C172 497 169.802 485.422 173.649 479.3C180.138 468.976 198.477 473 209 473C214.646 473 222.115 474.669 224 468C214.778 465.804 204.441 467 195 467L142 467L126 467C123.754 467.005 120.506 466.538 118.603 468.026C116.826 469.416 117.065 472.007 117 474M366 598L368 589L296 589L277 589C273.858 588.995 270.048 589.36 267.228 587.682C263.031 585.184 264 579.142 264 575L264 549C264.01 544.036 264.227 539.055 269.094 536.318C274.125 533.489 282.412 535 288 535L330 535L330 528L287 528C281.009 528 272.77 529.231 267.228 526.436C262.742 524.173 264 517.133 264 513C264 502.332 259.627 481.105 270.171 474.653C276.031 471.066 286.362 473 293 473L347 473C352.398 473 359.808 474.94 364.941 473.667C367.702 472.983 370.07 469.306 366.677 467.603C364.515 466.518 361.338 467.001 359 467L343 467L284 467C278.05 467 262.541 464.214 259.028 470.148C256.175 474.966 258 484.553 258 490L258 538L258 579C258 583.156 256.541 590.872 259.742 594.105C266.268 600.696 280.667 598 289 598L366 598M546 467L546 595C555.697 592.978 552 575.769 552 568C552 547.271 550.206 525.63 552.17 505C552.628 500.186 552.854 495.84 552.634 491.005C552.562 489.424 552.414 487.115 554.293 486.458C556.996 485.512 560.279 489.514 561.855 491.17C567.813 497.43 574.259 503.637 579.559 510.424C584.533 516.792 593.387 523.999 595 532C598.786 533.361 600.188 535.068 601 539C605.973 540.807 609.266 546.34 612.97 550.095C623.146 560.411 631.287 572.491 641.668 582.709C644.371 585.369 648.472 593.889 652.138 594.553C654.495 594.98 657.61 593.304 660 593C659.343 561.153 660 528.977 660 497C660 489.81 661.732 480.052 659.682 473.148C658.766 470.061 654.143 468.939 652.028 471.603C650.697 473.279 651.015 476.01 651.001 478L651 493L651 553C651 561.075 654.692 576.795 644 578C643.152 569.776 637.583 568.034 632.719 562.506C629.013 558.295 625.983 553.365 622.146 549.089C606.954 532.161 591.002 514.962 577.188 496.876C573.011 491.406 568.465 486.836 563.857 481.816C558.676 476.169 553.699 469.179 546 467M853 467C849.985 490.854 852 515.952 852 540C852 557.524 849.798 576.751 853 594C857.147 594.866 860.902 597.358 865.089 597.871C882.841 600.049 902.106 598 920 598L945 598C948.973 598 953.946 598.792 957.791 597.682C960.917 596.779 963.035 593.446 966 592C963.829 588.651 960.787 589.008 957 589L938 589L891 589C883.243 589 874.662 590.029 867 588.776C863.891 588.268 861.071 586.694 858 586C858.006 577.644 859 569.387 859 561C859 535.725 858.088 510.26 859.018 485.004C859.183 480.527 860.949 476.542 861 472C858.313 470.676 857.324 469.687 856 467L853 467M1404 468C1400.55 475.211 1396.19 481.788 1396 490C1390.29 491.729 1390.29 496.822 1388.57 501.829C1387.05 506.243 1384.54 510.597 1382.79 515.001C1377.94 527.195 1371.79 538.779 1366.93 551C1365.51 554.56 1365.45 558.526 1363.87 562C1359.18 572.311 1351.62 581.517 1350 593C1352.24 592.992 1355.38 593.443 1357.27 591.972C1359.22 590.461 1359.76 587.179 1360.61 585C1362.47 580.276 1364.57 573.738 1369.13 570.924C1374.53 567.59 1382.94 569 1389 569L1423 569C1428.49 569 1434.56 568.278 1439.98 569.148C1444.7 569.905 1446.24 573.791 1447 578C1453.03 581.248 1450.33 587.959 1454.82 592.142C1456.96 594.14 1460.28 593.942 1463 594C1462.36 585.396 1454.98 579.585 1452.15 571.911C1447.27 558.728 1442.85 545.225 1437.41 532.171C1434.83 525.981 1430.59 520.597 1427.85 514.675C1426.46 511.668 1427.35 508.164 1426.11 505.09C1425.04 502.43 1422.6 500.655 1421.6 497.961C1420.77 495.729 1421.19 493.267 1420.44 491.015C1419.5 488.211 1417.24 486.311 1415.76 483.83C1412.4 478.174 1411 470.077 1404 468M1307 472L1307 593L1315 593L1315 470L1307 472M1059 472.304C1066.79 471.09 1072.88 474.341 1080 476.759C1092.28 480.929 1105.01 488.813 1113 499.455C1114.66 501.681 1114.95 504.519 1116.3 506.91C1117.52 509.076 1119.54 510.721 1120.41 513.089C1121.53 516.143 1120.91 519.804 1121.29 523C1123.93 545.448 1115.98 565.36 1097.57 578.806C1091.52 583.231 1085.56 587.289 1078 588.557C1071.83 589.592 1065.24 589 1059 589C1053.85 589 1047.97 589.456 1043.09 587.451C1026.77 580.748 1016.11 567.659 1009.14 552.114C1008.13 549.871 1006.12 548.263 1005.43 545.871C1004.04 541.078 1005 534.954 1005 530C1005 526.219 1004.38 521.778 1005.31 518.089C1006 515.374 1008.22 513.497 1009.3 510.961C1010.5 508.148 1010.54 504.991 1012.1 502.3C1019.83 488.921 1034.29 481.3 1048 476.29C1051.7 474.939 1055.06 472.919 1059 472.304M710 564C702.077 562.736 705.994 554.209 699 552C697.778 542.333 696.188 531.687 697.579 522C698.226 517.502 698.235 513.544 703 512C703.574 503.065 709.496 495.924 715.911 490.131C728.342 478.906 745.904 471.12 763 473.13C767.028 473.603 770.246 475.911 773.999 477.197C797.756 485.337 813.764 505.222 814.896 531C815.408 542.67 810.974 554.908 804.544 564.285C803.276 566.134 802.825 568.472 801.277 570.12C796.151 575.581 789.368 579.434 783.129 583.347C781.26 584.52 779.789 586.409 777.741 587.273C771.382 589.955 761.794 589 755 589C748.756 589 742.08 589.473 736 587.722C733.33 586.953 731.365 585.192 729.001 583.834C720.981 579.228 712.007 573.902 710 564M1372 551C1378.96 548.981 1376.7 543.448 1379.84 538.286C1384.62 530.408 1386.97 521.407 1390.84 513.129C1392.08 510.469 1394.55 508.835 1395.44 505.946C1397.2 500.201 1398.51 496.293 1401.29 490.911C1402.23 489.091 1402.69 486.284 1404.52 485.086C1406.47 483.809 1408.13 485.501 1409.01 487.149C1411.46 491.755 1412.96 496.939 1415.72 501.424C1417.28 503.967 1419.37 506.177 1420.45 509C1421.67 512.163 1421.39 515.75 1422.71 518.871C1423.58 520.919 1425.37 522.294 1426.36 524.259C1429.47 530.435 1431.32 537.61 1434.21 543.985C1436.71 549.504 1441.51 554.265 1437.43 560.682C1434.56 565.183 1422.66 563 1418 563L1387 563C1383.62 563 1377.57 564.138 1374.7 561.972C1371.65 559.662 1372.03 554.377 1372 551M1544.98 493.823C1535.32 495.405 1538.14 505.834 1546.94 503.667C1552.91 502.198 1551.21 492.803 1544.98 493.823M1918.34 495.028C1910.56 499.95 1919.91 508.933 1926.85 504.821C1934.8 500.116 1925.05 490.786 1918.34 495.028M1524 514C1523.08 508.686 1512.29 504.963 1512.37 512.059C1512.44 518.311 1518.94 522.774 1523.11 526.455C1530.48 532.953 1536.44 540.321 1544.01 546.71C1548.58 550.558 1551.73 553.878 1558 553.995C1565.02 554.127 1574.21 555.459 1581 553.566C1584.07 552.709 1588.47 548.915 1585.38 545.603C1583.6 543.698 1580.35 544.017 1578 544.001C1572.45 543.963 1566.54 544.611 1561.04 543.867C1555.04 543.054 1549.83 536.746 1545.29 533.135C1538.34 527.618 1532.65 516.844 1524 514M1949.59 510.024C1946.88 511.733 1944.81 514.879 1942.42 517.026C1938.43 520.614 1934 523.328 1930.24 527.27C1924.57 533.224 1920.35 539.042 1912.83 542.84C1907.67 545.447 1899.64 543.988 1894 544C1891.41 544.005 1887.75 543.514 1885.76 545.589C1882.56 548.934 1886.67 553.126 1890.05 553.772C1896.02 554.912 1902.93 554.002 1909 554C1912.97 553.998 1917.28 554.326 1920.87 552.312C1925.17 549.901 1927.87 544.903 1931.45 541.619C1936.08 537.376 1940.48 532.744 1945.19 528.579C1948.56 525.609 1952.68 523.082 1955.42 519.471C1956.87 517.557 1958.71 514.669 1958.46 512.148C1958.07 508.288 1952.06 508.469 1949.59 510.024M1560 525C1564.75 524.983 1577.12 520.252 1569.68 514.032C1566.41 511.294 1557.32 512.16 1556.43 517.206C1555.91 520.121 1558.77 522.632 1560 525M1759 514C1759 521.327 1756.56 534.261 1761.28 540.431C1762.82 542.447 1765.43 543.305 1767.58 544.495C1770.99 546.386 1774.98 547.955 1778.91 546.397C1785.84 543.646 1789.66 531.349 1798.04 531.453C1801.82 531.5 1804.77 534.784 1807.41 537.08C1814.51 543.246 1822.94 550.229 1828.48 557.861C1830.85 561.117 1828.44 564.902 1826.41 567.726C1822.47 573.194 1811.41 579.17 1812.82 587.015C1813.25 589.428 1814.34 591.865 1815.52 593.999C1817.06 596.795 1819.02 599.982 1822.09 601.258C1830.03 604.557 1840.56 598.685 1847.72 604.899C1850.14 606.996 1849.98 610.058 1850 613C1850.04 618.999 1850 625 1850 631C1850 635.664 1851.51 643.743 1848.26 647.566C1843.32 653.366 1830.62 648.601 1824.02 650.318C1819.9 651.389 1816.99 656.36 1815.3 660C1810.17 671.095 1829.43 677.694 1831.52 687.089C1832.35 690.862 1828.41 694.135 1826.21 696.701C1823.9 699.398 1820.94 701.384 1818.43 703.884C1813.22 709.056 1807.12 718.647 1799 718.898C1791.18 719.14 1789.39 712.242 1783 710C1780.26 699.518 1765.3 706.442 1760.6 712.299C1755.41 718.783 1762.7 730.175 1757.26 736.566C1753.63 740.831 1743.99 739 1739 739C1732.72 739 1719.15 741.55 1714.43 736.682C1709.12 731.201 1714.27 723.34 1712.68 717.043C1711.31 711.645 1699.82 706.247 1694.71 704.744C1685.29 701.973 1681.53 715.848 1673.95 718.346C1665.59 721.098 1661.66 712.653 1655 710C1654.36 705.949 1652.85 704.352 1649 703C1647.6 697.175 1638.9 693.328 1640.61 687.014C1643.5 676.352 1659.45 673.877 1653.48 660.015C1652.02 656.612 1649.44 652.379 1645.87 650.89C1639.16 648.086 1629.42 652.891 1623.32 648.821C1620.27 646.787 1621 642.152 1621 639C1621 632.037 1621.39 624.948 1620.91 618C1620.66 614.344 1619.36 610.554 1620.94 607.019C1624.63 598.746 1635.99 603.051 1643 601.772C1648.38 600.789 1651.6 595.716 1653.51 590.95C1658.95 577.327 1642.25 574.356 1640.49 563C1639.75 558.216 1642.99 556.493 1646 553.486C1651.03 548.456 1655.8 543.238 1660.87 538.25C1663.17 535.991 1664.78 532.488 1668.06 531.529C1671.68 530.469 1674.8 532.7 1678 534C1679.07 537.415 1680.86 538.094 1683.59 540.204C1685.61 541.767 1686.79 544.014 1689.13 545.197C1696.36 548.845 1704.77 543.53 1709.85 538.409C1715.9 532.313 1708.99 522.222 1713.18 515.148C1715.56 511.123 1721.02 512 1725 512C1736.05 511.999 1748.52 510.255 1759 514M1899.57 514.028C1893.25 518.494 1901.66 527.465 1907.77 523.681C1916.01 518.579 1906.63 509.044 1899.57 514.028M1959 578C1952.67 575.182 1949.86 567.007 1943 565.319C1938.57 564.228 1933.51 565.943 1929 565.996C1918.58 566.12 1907.31 564.679 1897 566.144C1893.25 566.677 1885.41 570.736 1889.61 575.351C1892.94 579.012 1899.59 578 1904 578L1928 578C1932.11 578 1937.08 577.284 1941 578.738C1946.55 580.797 1950.3 590.278 1956.85 588.663C1961.38 587.545 1959.26 581.257 1959 578M1526 568.428C1520.57 569.219 1514.77 572.646 1512.6 578.104C1511.67 580.44 1511.48 585.042 1514.3 586.199C1518.72 588.009 1525.75 579.884 1530 578.56C1533.71 577.405 1538.16 578 1542 578L1564 578C1568.11 578 1573.88 578.721 1577.57 576.486C1583.9 572.647 1575.92 568.139 1572 568.015C1557.21 567.549 1540.64 566.297 1526 568.428M1783 596C1782.31 591.069 1781.19 588.597 1776 588C1774.7 579.968 1766.6 577.261 1760.17 574.214C1740.44 564.867 1716.05 565.233 1698.17 579.039C1673.78 597.875 1669.92 635.63 1685.91 660.676C1688.4 664.567 1692.07 666.559 1695.41 669.505C1699.53 673.14 1703.08 676.964 1708 679.647C1724.28 688.532 1746.94 688.617 1762.71 678.225C1772.51 671.771 1782.34 662.507 1787.69 651.911C1792.37 642.631 1793.05 631.21 1793 621C1792.97 615.124 1790.81 611.398 1789.41 605.961C1788.18 601.162 1788.78 596.994 1783 596M1729 602.418C1733.7 601.277 1737.81 602.436 1742.09 604.273C1746.08 605.989 1750.39 607.581 1753.23 611.04C1764.52 624.778 1757.3 646.181 1740 650.112C1735.74 651.079 1730.65 651.687 1726.42 650.271C1719.89 648.082 1717.09 643.771 1714.02 638.015C1712.76 635.649 1710.87 633.494 1710.28 630.83C1707.48 618.279 1716.89 605.356 1729 602.418M1946.23 626.029C1937.16 631.534 1949.76 642.281 1956.4 636.972C1961.91 632.558 1952.07 622.482 1946.23 626.029M1515.3 627.032C1507.67 631.825 1514.97 642.632 1522.85 637.972C1530.42 633.496 1521.99 622.831 1515.3 627.032M135.109 638.858C128.019 642.089 131.368 650.319 138.004 650.906C157.681 652.647 178.24 651 198 651L407 651L1149 651L1392 651L1453 651C1458.04 651 1470.49 653.25 1474.26 649.397C1475.13 648.51 1475.62 647.202 1475.77 645.985C1476.73 637.772 1469.11 638.002 1463 638L1401 638L1156 638L426 638L219 638L160 638C152.899 638 141.65 635.877 135.109 638.858M1895.29 669.938C1886.93 673.982 1883.22 683.217 1885.79 691.996C1888.34 700.696 1898.95 707.052 1907.74 703.107C1917.59 698.688 1924.3 682.596 1916.09 673.549C1912.69 669.801 1907.76 669.016 1903 669.001C1900.43 668.993 1897.66 668.789 1895.29 669.938M1565 678.564C1576.41 675.129 1577.74 689.961 1568 693.231C1556.26 697.168 1553.86 681.918 1565 678.564M1911 680C1910.97 683.204 1911.14 686.842 1909.43 689.701C1906.2 695.096 1897.81 696.076 1894.18 690.529C1891.36 686.226 1894.5 679.961 1899.04 678.514C1903.21 677.189 1907.12 678.615 1911 680M330 716C325.443 716.76 325.8 719.245 323.282 722.546C321.808 724.477 319.95 725.699 319.032 728.054C317.656 731.582 318.502 735.43 317.451 739C315.547 745.47 312.615 749.908 313.09 757C313.414 761.854 312.776 769.266 318 771C318.01 786.559 328.754 797.434 339.466 807.625C342.858 810.852 347.552 811.868 350 816C354.866 816.358 358.302 819.452 363.001 820.481C368.733 821.738 375.161 821 381 821C386.525 821 392.571 821.672 397.996 820.481C402.113 819.578 405.245 817.04 409.014 815.358C413.494 813.359 418.728 811.649 422.542 808.431C425.512 805.923 427.163 802.127 429.748 799.284C431.368 797.503 433.624 796.542 435.198 794.716C439.692 789.503 443.934 781.472 446.185 775C449.263 766.153 448.036 755.102 447.17 746C446.889 743.052 447.388 739.89 446.683 737C446.033 734.333 444.147 732.426 443.005 730C441.842 727.531 441.921 724.739 440.312 722.456C436.306 716.773 430.584 712.665 428 706C423.775 705.132 421.817 702.624 418.385 700.26C414.618 697.666 409.19 694.716 404.961 693.005C401.819 691.734 398.287 692.028 395 691.37C388.989 690.168 383.262 687.833 377 688.059C367.942 688.385 358.664 693.21 350.83 696.911C348.77 697.885 346.426 697.674 344.379 698.585C342.07 699.612 340.58 702.066 338.671 703.653C333.849 707.66 330.22 709.243 330 716M953 759C952.354 750.712 943.358 753 937 753L888 753C887.466 749.455 884.811 746.484 884.573 743C884.392 740.357 885.765 737.658 885.946 735C886.442 727.73 886 720.286 886 713C886 707.938 884.778 701.071 890.059 698.179C895.672 695.105 905.761 697 912 697L966 697L983 696.999C985.213 696.984 988.412 697.359 989.972 695.397C991.468 693.516 990.992 690.232 991 688L910 688C900.352 688 886.607 685.112 879.279 692.714C875.543 696.59 877 704.038 877 709C877 723.727 877.077 738.333 877.907 753C878.135 757.036 877.113 760.975 877.015 765C876.729 776.652 877 788.344 877 800C877 804.895 875.202 814.323 878.028 818.525C882.235 824.782 897.542 822 904 822L963 822C970.424 822 982.018 824.198 988.941 821.397C991.748 820.261 993.707 816.488 989.847 815.318C985.2 813.909 978.83 815 974 815L911 815C904.974 815 892.934 817.298 888.318 812.682C883.581 807.945 886 795.2 886 789L886 771C886.006 768.097 885.679 764.767 887.603 762.344C891.432 757.523 899.607 759 905 759L953 759M1178 688L1178 697L1211 697C1215.55 697 1221.62 696.126 1225.43 699.228C1228.37 701.626 1227.99 705.586 1228 709L1228 730L1228 819L1236 819L1236 730C1236 723.001 1235.95 715.999 1236 709C1236.03 705.18 1236.25 701.215 1239.48 698.603C1242.86 695.878 1248.95 697 1253 697L1286 697L1285 688L1178 688M1382 688L1382 691C1375.88 691.001 1362.41 690.137 1360 697C1350 698.025 1341.86 707.243 1336.41 715.015C1331.98 721.314 1327.17 726.511 1324.67 734C1320.18 747.498 1323.4 764.139 1324 778C1328.84 780.658 1327.81 785.406 1330.43 789.737C1331.71 791.859 1333.86 793.371 1335.46 795.249C1340.45 801.118 1345.84 809.734 1354 810C1355.21 813.748 1357.44 813.988 1360.72 815.759C1369.04 820.266 1374.49 821 1384 821C1392.86 821 1402.31 821.897 1411 819.762C1416.81 818.334 1421.51 813.802 1426.17 810.31C1435.55 803.281 1445.45 797.674 1447 785C1452.68 783.134 1450.91 777.727 1453.13 773.17C1457.11 765.038 1459.05 754.327 1456.57 745.039C1455.7 741.761 1453.48 739.462 1453.02 735.985C1452.08 728.949 1447.91 716.91 1440 716C1439.03 707.381 1429.17 701.915 1422.04 698.521C1418.78 696.972 1416.4 694.082 1412.99 692.819C1410.08 691.746 1407 692.3 1404.04 691.586C1396.32 689.724 1390.16 688 1382 688M197 796L202 796C202 799.536 201.545 803.554 203.005 806.871C204.922 811.224 207.717 812.847 208 818C210.983 818.665 214.606 820.756 217.66 819.392C220.741 818.016 221.505 813.719 222.947 811C225.239 806.678 225.786 802.504 227.573 798.129C228.555 795.726 230.78 794.138 232.023 791.871C234.012 788.245 234.194 785.09 238 783C239.396 773.553 246.014 765.447 249.895 756.911C252.594 750.974 255.518 745.768 258.593 740.003C261.599 734.367 263.682 728.322 267.209 723.015C268.32 721.344 270.127 717.592 272.736 718.461C274.564 719.071 274.799 721.404 274.941 723.005C275.351 727.606 275 732.382 275 737L275 796C275 801.651 274.773 807.354 275.019 812.999C275.11 815.078 275.218 817.719 277.299 818.863C280.82 820.8 281.87 816.457 281.981 813.985C282.336 806.023 282 797.97 282 790L282 722C282 712.435 284.212 699.752 280 691C270.906 694.133 265.802 707.842 261.833 716C257.826 724.237 254.127 732.827 250.031 740.911C248.911 743.121 247.003 744.799 246.008 747.089C245.054 749.283 245.089 751.76 244.016 753.911C239.415 763.136 232.904 771.902 228.16 781.089C226.886 783.556 226.954 786.441 225.687 788.911C224.347 791.521 221.858 793.289 220.738 796.039C219.671 798.656 220.192 802.189 217.566 803.971C210.046 809.076 207.779 796.601 207 792L203 792C202.563 788.561 202.396 784.344 200.698 781.259C199.423 778.941 197.305 777.452 196.248 774.946C193.982 769.576 192.533 763.281 189.576 758.26C188.338 756.157 186.264 754.709 185.144 752.522C183.966 750.223 184.132 747.494 182.826 745.259C181.817 743.532 180.001 742.479 179.012 740.741C177.865 738.725 178.138 736.274 176.988 734.259C175.811 732.196 173.631 730.966 172.455 728.871C171.087 726.434 171.069 723.559 169.995 721.015C168.875 718.36 166.751 716.379 165.458 713.83C163.661 710.286 161.334 706.573 159.86 702.911C158.75 700.154 158.659 697.022 156.347 694.884C154.77 693.426 150.794 690.912 148.603 692.171C146.549 693.353 147.014 697.048 147.001 699C146.953 705.999 147 713.001 147 720L147 795C147 800.998 146.92 807.003 147.004 813C147.033 815.094 146.734 818.533 148.738 819.914C151.498 821.816 153.494 818.186 153.852 815.981C154.987 808.986 154 801.083 154 794L154 735C153.998 730.349 152.896 725.602 153.098 721.005C153.162 719.556 153.399 716.991 155.225 716.631C157.654 716.153 159.969 720.208 161.266 721.715C166.247 727.502 168.159 736.094 171.63 742.947C172.956 745.565 175.297 747.484 176.505 750.129C178.765 755.074 180.153 760.153 182.769 765.036C188.199 775.169 195.033 784.383 197 796M495 717C495.049 722.907 494.99 730.84 502 732C502.033 744.106 508.434 754.204 513.093 765C516.177 772.147 518.505 779.883 521.965 786.871C523.106 789.174 525.322 790.732 526.273 793.129C527.391 795.944 526.528 799.099 527.6 801.911C528.631 804.616 531.168 806.347 532.262 809.039C533.511 812.112 532.96 815.836 535.653 818.258C540.588 822.698 544.122 818.207 545.986 813.995C548.886 807.443 551.938 803.453 552 796L555 796C557.101 783.64 564.027 773.136 568.853 761.961C569.946 759.428 569.728 756.62 570.737 754.089C573.357 747.515 577.688 741.391 580.451 734.83C581.863 731.478 581.248 727.482 582.98 724.259C585.151 720.218 586.765 716.052 588.92 712C592.091 706.036 597.017 699.814 598 693C594.858 693.011 591.057 692.58 588.857 695.318C584.079 701.265 582.965 710.152 580.095 717C578.237 721.432 576.751 726.648 574.575 730.871C573.522 732.914 571.534 734.214 570.509 736.259C568.901 739.47 569.029 743.506 569 747C563.206 748.743 563.959 753.091 562.115 758C559.65 764.563 557.06 768.703 557 776C551.614 776.898 552.21 780.616 550.363 785C548.904 788.462 546.627 791.295 545.681 795C545.032 797.539 544.945 803.581 540.895 802.744C536.369 801.808 534.514 796.753 533.143 793.001C531.769 789.241 529.189 786.44 527.709 782.871C526.457 779.852 526.823 776.35 525.454 773.375C524.53 771.366 522.766 769.905 521.799 767.896C517.491 758.947 514.185 749.15 510.274 740C509.205 737.499 509.366 734.659 508.262 732.209C506.995 729.395 504.069 727.89 502.893 724.957C502.008 722.753 502.234 720.304 501.419 718.089C500.223 714.839 497.767 712.412 496.75 708.996C495.129 703.552 494.061 696.584 489.456 692.608C486.377 689.95 482.944 692.241 483.518 696.019C484.146 700.142 487.163 702.628 489.031 706.089C491.296 710.289 489.831 715.286 495 717M685 717C685.734 721.321 686.53 726.434 691 728C691.283 732.269 693.212 735.852 694 740C697.94 742.171 697.501 745.202 699.451 748.911C701.544 752.89 704.052 755.558 705.388 760C708.548 770.504 715.569 780.229 721.438 789.174C723 791.555 722.9 794.363 724.008 796.911C725.005 799.205 726.895 800.897 728.056 803.089C730.474 807.66 731.615 817.227 736.533 819.914C739.62 821.6 743.586 818.044 745.258 815.71C746.924 813.383 746.525 810.709 747.596 808.209C748.527 806.035 750.646 804.774 751.866 802.791C753.945 799.412 754.662 794.88 755 791C761.801 788.741 763.456 776.912 766.585 771.129C767.96 768.587 770.244 766.719 771.232 763.946C772.874 759.338 771.514 755.665 777 754C778.847 745.079 784.098 737.937 788.157 729.961C789.55 727.222 789.687 723.706 791.728 721.318C793.637 719.084 796.303 719.088 799 719C798.983 744.255 798 769.664 798 795C798 800.663 797.898 806.337 798.005 811.999C798.041 813.92 797.835 816.644 799.602 817.933C801.364 819.219 804.08 818.335 806 818C806 776.315 806.141 734.607 807 693C804.528 693.009 801.474 692.648 799.278 694.028C796.857 695.549 796.239 698.651 794.931 701C792.327 705.674 790.154 711.239 786.919 715.424C781.919 721.892 780.082 729.762 776.584 736.911C773.63 742.948 769.715 748.367 766.438 754.17C761.174 763.492 757.375 774.198 753.147 783.961C749.64 792.057 741.756 797.918 740 807C734.861 804.305 735.5 797.782 730 796C729.438 789.125 726.134 786.696 723.508 780.946C722.385 778.486 722.176 775.736 720.969 773.286C716.991 765.211 711.544 756.974 710 748C705.166 745.464 705.771 741.43 703.183 737.17C697.582 727.952 692.265 717.956 687.796 707.961C685.81 703.519 682.91 694.51 677.756 692.662C674.588 691.526 673.292 694.449 673.059 697.019C672.522 702.921 673 709.074 673 715L673 793C673 799.958 672.601 807.051 673.044 813.995C673.168 815.941 673.745 820.267 676.791 819.248C679.188 818.447 678.958 814.979 678.995 812.999C679.102 807.337 679 801.663 679 796L679 737C679 730.064 676.708 719.462 685 717M1040 708C1041.88 715.655 1047.62 718.236 1052.48 723.549C1054.12 725.34 1054.86 727.785 1056.34 729.714C1060.29 734.882 1065.12 738.943 1069.54 743.545C1073.76 747.919 1076.55 753.913 1080.5 758.545C1085.15 763.986 1090.72 768.77 1095.5 774.13C1099.39 778.498 1102.28 783.585 1106.17 787.911C1110.87 793.148 1115.18 798.788 1119.96 803.947C1124.83 809.202 1130.91 814.479 1134 821C1135.76 820.797 1137.77 820.815 1138.98 819.258C1140.6 817.167 1140 813.464 1140 811L1140 790L1140 717C1140 711.338 1140.1 705.665 1140 700.004C1139.96 697.976 1140.16 694.717 1137.74 693.89C1132.96 692.257 1134 701.683 1134 704L1134 740L1134 773C1134 780.863 1135.82 791.315 1133.68 798.891C1131.9 805.193 1126.88 801.226 1126 797C1121.71 794.762 1115.77 788.834 1115 784C1110.54 781.968 1109.45 778.134 1106.41 774.594C1103.58 771.312 1099.87 768.759 1097.14 765.451C1091.81 758.986 1087.75 752.122 1081.04 746.714C1077.82 744.119 1077.37 740.758 1073 740C1071.75 731.903 1061.57 723.946 1056.11 718.139C1053.1 714.943 1052.7 711.778 1048 711C1046.86 705.386 1039.76 696.263 1034.74 693.333C1031.63 691.517 1026.43 692.357 1025.32 696.144C1022.72 705.031 1025 717.739 1025 727L1025 793C1025 800.324 1023.18 809.778 1024.49 816.852C1025.08 820.094 1029.89 820.879 1032.26 818.972C1033.98 817.586 1033.92 814.991 1033.98 812.999C1034.15 807.677 1034 802.325 1034 797L1034 734C1034 726.569 1030.41 709.529 1040 708M632 820L639 820L639 723C639 715.672 639.135 708.33 638.995 701.004C638.944 698.29 638.736 694.07 635.089 693.832C631.886 693.622 632.045 697.863 632.005 700.001C631.86 707.661 632 715.338 632 723L632 820M839 693L839 790L839 810C839.004 812.574 838.505 816.205 840.174 818.397C841.364 819.957 843.252 819.861 845 820L845 693L839 693M440 774C435.917 776.325 435.718 779.951 433.574 783.83C431.17 788.18 428.532 790.843 428 796C423.645 796.693 423.044 799.339 419.701 801.626C414.726 805.031 409.34 807.477 404.039 810.255C401.617 811.525 399.693 813.403 396.91 813.853C388.925 815.144 378.155 816.404 370.17 814.726C366.94 814.047 364.061 811.862 360.999 810.661C354.149 807.972 347.942 805.65 342.09 800.946C328.658 790.149 321.422 772.918 321.015 756C320.882 750.496 322.461 746.271 323.522 741C324.111 738.069 323.759 734.899 324.893 732.089C327.026 726.804 331.239 724.07 332 718C336.702 716.558 338.864 712.329 342.3 709.019C345.472 705.963 349.203 705.365 352.741 703.085C354.658 701.849 355.851 699.981 358.129 699.312C372.193 695.184 390.873 694.425 404.83 699.559C408.357 700.857 411.174 704.146 414.17 706.329C425.504 714.589 435.927 726.016 440.062 740.039C443.218 750.745 440.001 763.079 440 774M1414 699C1416.39 703.438 1421.23 704.981 1426 706C1430.16 714.905 1440.52 721.15 1444.4 730.259C1445.41 732.614 1445.14 735.515 1445.76 738C1447.47 744.793 1449.28 750.886 1448.96 758C1448.58 766.366 1445.66 774.594 1445 783C1440.3 785.344 1438.52 790.054 1435.24 793.985C1431.19 798.833 1424.2 804.665 1418.71 807.84C1407.27 814.464 1392.98 816.13 1380 814.424C1377.21 814.057 1374 814.406 1371.32 813.49C1363.6 810.846 1357.01 804.082 1349 802C1347.11 795.826 1340.16 790.829 1336.84 785C1334.46 780.831 1334.45 776.536 1330 774C1330 763.447 1327 751.392 1329.39 741.015C1330.18 737.625 1332.73 735.674 1334.17 732.675C1335.16 730.624 1335.18 728.253 1336.31 726.259C1340.42 719.033 1346.45 713.934 1352.72 708.654C1356.72 705.28 1361.87 700.603 1367.09 699.299C1377.26 696.756 1389.47 695.87 1399.91 697.129C1404.79 697.716 1408.95 698.999 1414 699M1570 718C1568.35 717.302 1566.77 716.532 1564.98 716.275C1563.75 716.098 1562.25 716.019 1561.06 716.438C1549.87 720.37 1564.59 734.951 1568.85 723.946C1569.58 722.072 1569.74 719.972 1570 718M1899.31 716.747C1894.33 719.214 1897.72 729.815 1903.74 727.377C1910.75 724.54 1906.41 713.237 1899.31 716.747M1539.32 731.029C1532.9 735.265 1539.86 745.08 1546.68 740.543C1553.04 736.318 1545.58 726.893 1539.32 731.029M1934 735C1931.45 734.299 1929.26 732.25 1926.76 731.732C1922.73 730.899 1920.48 736.822 1922.07 739.852C1925.95 747.252 1933.81 740.815 1934 735M1560 754L1568 755C1568.77 760.242 1572.83 762.057 1576.34 765.618C1584.46 773.873 1592.8 781.875 1600.84 790.255C1604.13 793.676 1607.65 799.35 1612.95 799.577C1617.97 799.793 1617.92 793.522 1618 790C1613.22 788.263 1610.22 783.364 1606.57 779.87C1597.22 770.922 1589.82 760.072 1579.09 752.54C1574.06 749.01 1562.74 736.472 1560.44 748.98C1560.14 750.655 1560.07 752.305 1560 754M1910 746C1907.06 744.754 1904.33 742.643 1900.99 743.579C1896.15 744.935 1894.14 749.078 1890.65 752.124C1880.9 760.641 1871.16 770.293 1862.58 780.032C1858.83 784.286 1847.15 790.595 1851.58 797.678C1855.78 804.414 1865.11 793.247 1868.01 790.463C1878.2 780.686 1887.9 770.327 1898.44 760.895C1903.6 756.28 1909.75 753.536 1910 746M1528 766.649C1517.01 769.945 1509.6 780.472 1511.21 792C1512.97 804.61 1526.92 813.102 1539 809.312C1550.32 805.759 1557.66 792.611 1554.58 781.089C1551.81 770.711 1537.98 763.654 1528 766.649M1931 766.818C1918.16 771.392 1911.09 788.319 1918.43 800.61C1923.13 808.478 1935.74 811.741 1943.99 809.007C1955.7 805.124 1962.87 789.735 1958.27 778.171C1954.66 769.082 1939.81 763.68 1931 766.818M1533 774.579C1551.69 775.149 1548.29 803.321 1530.04 801.938C1513.9 800.714 1516.79 774.084 1533 774.579M1949 779C1949.84 782.753 1951.37 786.036 1950.79 790.001C1949.56 798.331 1940.95 805.073 1932.38 801.411C1921.52 796.772 1921.12 783.265 1930.43 777.559C1932.74 776.143 1935.23 775.049 1938 775.184C1941.85 775.37 1945.42 777.778 1949 779M1672 803C1675.7 802.959 1678.59 802.446 1682 801C1680.29 792.396 1672.15 785.836 1665.57 780.558C1663.27 778.709 1657.29 776.515 1656.45 781.139C1655.67 785.401 1660.13 789.226 1662.8 791.706C1665.97 794.662 1669.97 799.216 1672 803M1789 803C1798.21 802.803 1801.98 796.724 1808.17 790.745C1810.57 788.419 1815.05 784.485 1811.97 780.745C1809.3 777.499 1803.75 780.702 1801.29 782.599C1794.54 787.801 1789.03 794.388 1789 803M1658 820L1658 816C1654.99 814.255 1654.16 811.469 1651.8 809.005C1647.05 804.038 1641.69 799.378 1636.56 794.799C1633.94 792.462 1629.14 789.181 1625.61 792.028C1621.15 795.619 1628.38 802.549 1630.63 805.151C1634.65 809.809 1639.49 814.227 1644.01 818.406C1645.69 819.95 1647.7 822.204 1650.08 822.55C1652.61 822.919 1655.64 820.758 1658 820M1842 792C1831.94 792.119 1824.4 801.121 1818.31 808.44C1816.14 811.05 1812.49 816.158 1815.62 819.396C1819.22 823.123 1824.41 818.977 1827.24 816.55C1831.9 812.553 1840.37 805.826 1842.36 799.911C1843.19 797.441 1842.31 794.502 1842 792z"/>
</svg>
